/* XPM */
static char *result[] = {
/* columns rows colors chars-per-pixel */
"96 96 13 1 ",
"  c #20242D",
". c #282828",
"X c #4A5368",
"o c gray48",
"O c #497DFF",
"+ c #7CA1FF",
"@ c #AFAFAF",
"# c #899AC1",
"$ c #B5CAFF",
"A c #D1DDFF",
"& c #E8EEFF",
"* c #FFFFFF",
"= c #000000",
/* pixels */
"================================================================================================",
"================================================================================================",
"==========================  ====================================================================",
"==========================  ====================================================================",
"==========================XX====================================================================",
"==========================XX====================================================================",
"==========================##====================================================================",
"==========================##====================================================================",
"==========================$$====================================================================",
"==========================$$====================================================================",
"==========================$$  ==================================================================",
"==========================$$  ==================================================================",
"==========================$$XX==============OO============OO====================================",
"==========================$$XX==============OO============OO====================================",
"==========================$$##================OO============OO==================================",
"==========================$$##================OO============OO==================================",
"========================$$$$$$  $$============++============++==================================",
"========================$$$$$$  $$============++============++==================================",
"====================OO++==$$$$XX==++OO==========++==========++==================================",
"====================OO++==$$$$XX==++OO==========++==========++==================================",
"==================OO======$$AA##======OO========++============$$================================",
"==================OO======$$AA##======OO========++============$$================================",
"==================++====AAAAAAAAAA====++==========$$==========$$================================",
"==================++====AAAAAAAAAA====++==========$$==========$$================================",
"================$$====AAAA======AAAA====$$========$$==========AA================================",
"================$$====AAAA======AAAA====$$========$$==========AA================================",
"==  XX##$$$$$$$$$$$$$$AA==AAAAAA==AA&&&&&&**********************************@@oo..==============",
"==  XX##$$$$$$$$$$$$$$AA==AAAAAA==AA&&&&&&**********************************@@oo..==============",
"==========  XX##$$$$AAAA==AA==AA==AAAA&&&&&&&&&&&&&&********************************@@oo..======",
"==========  XX##$$$$AAAA==AA==AA==AAAA&&&&&&&&&&&&&&********************************@@oo..======",
"================  XX##AA==AAAAAA==AAAAAAAA&&&&&&&&&&&&&&&&&&&&&&**************************@@oo..",
"================  XX##AA==AAAAAA==AAAAAAAA&&&&&&&&&&&&&&&&&&&&&&**************************@@oo..",
"================$$====AAAA======AAAA====$$========$$==========AA================================",
"================$$====AAAA======AAAA====$$========$$==========AA================================",
"==================++====AAAAAAAAAA================$$==========$$================================",
"==================++====AAAAAAAAAA================$$==========$$================================",
"==================OO======&&AAAA================++============$$================================",
"==================OO======&&AAAA================++============$$================================",
"====================OO++==&&&&AA================++==========++==================================",
"====================OO++==&&&&AA================++==========++==================================",
"========================$$&&&&AA$$============++============++==================================",
"========================$$&&&&AA$$============++============++==================================",
"==========================**&&&&==============OO============OO==================================",
"==========================**&&&&==============OO============OO==================================",
"============OO============**&&&&============OO============OO====================================",
"============OO============**&&&&============OO============OO====================================",
"==============OO++========**&&&&========++OO====================================================",
"==============OO++========**&&&&========++OO====================================================",
"==================++++====**&&&&====++++========================================================",
"==================++++====**&&&&====++++========================================================",
"======================$$$$**&&&&$$$$============================================================",
"======================$$$$**&&&&$$$$============================================================",
"==========================****&&================================================================",
"==========================****&&================================================================",
"==========================****&&================================================================",
"==========================****&&================================================================",
"==========================****&&================================================================",
"==========================****&&================================================================",
"============OO============****&&============OO==================================================",
"============OO============****&&============OO==================================================",
"==============OO++++======****&&======++++OO====================================================",
"==============OO++++======****&&======++++OO====================================================",
"====================$$$$AA****&&AA$$$$==========================================================",
"====================$$$$AA****&&AA$$$$==========================================================",
"==========================******================================================================",
"==========================******================================================================",
"==========================******================================================================",
"==========================******================================================================",
"==========================******================================================================",
"==========================******================================================================",
"==========================******================================================================",
"==========================******================================================================",
"==========================******================================================================",
"==========================******================================================================",
"==========================******================================================================",
"==========================******================================================================",
"==========================@@****================================================================",
"==========================@@****================================================================",
"==========================oo****================================================================",
"==========================oo****================================================================",
"==========================..****================================================================",
"==========================..****================================================================",
"============================****================================================================",
"============================****================================================================",
"============================@@**================================================================",
"============================@@**================================================================",
"============================oo**================================================================",
"============================oo**================================================================",
"============================..**================================================================",
"============================..**================================================================",
"==============================@@================================================================",
"==============================@@================================================================",
"==============================oo================================================================",
"==============================oo================================================================",
"==============================..================================================================",
"==============================..================================================================"
};
