/* XPM */
static char *result[] = {
/* columns rows colors chars-per-pixel */
"256 64 7 1 ",
"  c #1C1E33",
". c #393268",
"X c #432F5B",
"o c #534B82",
"O c #646DB7",
"+ c #F2E8FF",
"@ c None",
/* pixels */
"@@@@@@@@@@@@@@@@@@@@@@@@@@@@@@@@@@@@@@@@@@@@@@@@@@@@@@@@@@@@@@@@@@@@@@@@@@@@@@@@@@@@@@@@@@@@@@@@@@@@@@@@@@@@@@@@@@@@@@@@@@@@@@@@@@@@@@@@@@@@@@@@@@@@@@@@@@@@@@@@@@@@@@@@@@@@@@@@@@@@@@@@@@@@@@@@@@@@@@@@@@@@@@@@@@@@@@@@@@@@@@@@@@@@@@@@@@@@@@@@@@@@@@@@@@@@@@@@",
"@@@@@@@@@@@@@@@@@@@@@@@@@@@@@@@@@@@@@@@@@@@@@@@@@@@@@@@@@@@@@@@@@@@@@@@@@@@@@@@@@@@@@@@@@@@@@@@@@@@@@@@@@@@@@@@@@@@@@@@@@@@@@@@@@@@@@@@@@@@@@@@@@@@@@@@@@@@@@@@@@@@@@@@@@@@@@@@@@@@@@@@@@@@@@@@@@@@@@@@@@@@@@@@@@@@@@@@@@@@@@@@@@@@@@@@@@@@@@@@@@@@@@@@@@@@@@@@@",
"@@@@@@@@@@OOOOooooooooooooooooooooooooooooooooooooooooooooooooooooooooooooooooooooooooooooooooooooooooooooooooooooooooooooooooooooooooooooooooooooooooooooooooooooooooooooooooooooooooooooooooooooooooooooooooooooooooooooooooooooooooooooooooooooOOOO@@@@@@@@@@",
"@@@@@@@OOO oooooooooooooooooooooooooooooooooooooooooooooooooooooooooooooooooooooooooooooooooooooooooooooooooooooooooooooooooooooooooooooooooooooooooooooooooooooooooooooooooooooooooooooooooooooooooooooooooooooooooooooooooooooooooooooooooooooooooo OOO@@@@@@@",
"@@@@@OO  oooooooooooooooooooooooooooooooooooooooooooooooooooooooooooooooooooooooooooooooooooooooooooooooooooooooooooooooooooooooooooooooooooooooooooooooooooooooooooooooooooooooooooooooooooooooooooooooooooooooooooooooooooooooooooooooooooooooooooooo  OO@@@@@",
"@@@@O   ooooooooooooooooooooooooooooooooooooooooooooooooooooooooo+++++++++++++++++++++ooooooooooooooo+++ooooooooooooooo+++oooooooooooooooooooooooo+++oooooooooooooooooooooooo+++++++++++++++++++++oooooooooooooooooooooooooooooooooooooooooooooooooooooo   O@@@@",
"@@@@O   ooooooooooooooooooooooooooooooooooooooooooooooooooooooooo+++++++++++++++++++++ooooooooooooooo+++ooooooooooooooo+++oooooooooooooooooooooooo+++oooooooooooooooooooooooo+++++++++++++++++++++oooooooooooooooooooooooooooooooooooooooooooooooooooooo   O@@@@",
"@@@O   oooooooooooooooooooooooooooooooooooooooooooooooooooooooooo+++++++++++++++++++++ooooooooooooooo+++ooooooooooooooo+++oooooooooooooooooooooooo+++oooooooooooooooooooooooo+++++++++++++++++++++ooooooooooooooooooooooooooooooooooooooooooooooooooooooo   O@@@",
"@@@O   ooooooooooooooooooooooooooooooooooooooooooooooooooooooo+++++++++++++++++++++XXXoooooooooooo++++++oooooooooooo++++++ooooooooooooooooooooo++++++ooooooooooooooooooooo+++++++++++++++++++++XXXooooooooooooooooooooooooooooooooooooooooooooooooooooooo   O@@@",
"@@O    ooooooooooooooooooooooooooooooooooooooooooooooooooooooo+++++++++++++++++++++XXXoooooooooooo++++++oooooooooooo++++++ooooooooooooooooooooo++++++ooooooooooooooooooooo+++++++++++++++++++++XXXooooooooooooooooooooooooooooooooooooooooooooooooooooooo   O@@@",
"@@O   oooooooooooooooooooooooooooooooooooooooooooooooooooooooo+++++++++++++++++++++ooooooooooooooo++++++oooooooooooo++++++ooooooooooooooooooooo++++++ooooooooooooooooooooo+++++++++++++++++++++ooooooooooooooooooooooooooooooooooooooooooooooooooooooooooo   O@@",
"@@O   oooooooooooooooooooooooooooooooooooooooooooooooooooooooo++++++XXXXXXXXXXXXXXXooooooooooooooo+++++++++ooooooooo+++XXXooooooooooooooooooooo++++++oooooooooooooooooooooXXXXXXXXX++++++XXXXXXooooooooooooooooooooooooooooooooooooooooooooooooooooooooooo   O@@",
"@@O   oooooooooooooooooooooooooooooooooooooooooooooooooooooooo++++++XXXXXXXXXXXXXXXooooooooooooooo+++++++++ooooooooo+++XXXooooooooooooooooooooo++++++oooooooooooooooooooooXXXXXXXXX++++++XXXXXXooooooooooooooooooooooooooooooooooooooooooooooooooooooooooo   O@@",
"@@O   oooooooooooooooooooooooooooooooooooooooooooooooooooooooo++++++oooooooooooooooooooooooooooooo+++++++++ooooooooo+++oooooooooooooooooooooooo++++++oooooooooooooooooooooooooooooo++++++ooooooooooooooooooooooooooooooooooooooooooooooooooooooooooooooooo   O@@",
"@@O   oooooooooooooooooooooooooooooooooooooooooooooooooooooooo++++++ooooooooooooooooooooooooooooooXXX++++++oooooo++++++oooooooooooooooooooooooo++++++oooooooooooooooooooooooooooooo++++++ooooooooooooooooooooooooooooooooooooooooooooooooooooooooooooooooo   O@@",
"@@O   oooooooooooooooooooooooooooooooooooooooooooooooooooooooo++++++ooooooooooooooooooooooooooooooXXX++++++oooooo++++++oooooooooooooooooooooooo++++++oooooooooooooooooooooooooooooo++++++ooooooooooooooooooooooooooooooooooooooooooooooooooooooooooooooooo   O@@",
"@@O   oooooooooooooooooooooooooooooooooooooooooooooooooooooooo++++++ooooooooooooooooooooooooooooooooo++++++oooooo++++++oooooooooooooooooooooooo++++++oooooooooooooooooooooooooooooo++++++ooooooooooooooooooooooooooooooooooooooooooooooooooooooooooooooooo   O@@",
"@@O   oooooooooooooooooooooooooooooooooooooooooooooooooooooooo++++++ooooooooooooooooooooooooooooooooo+++++++++ooo+++XXXoooooooooooooooooooooooo++++++oooooooooooooooooooooooooooooo++++++ooooooooooooooooooooooooooooooooooooooooooooooooooooooooooooooooo   O@@",
"@@O   oooooooooooooooooooooooooooooooooooooooooooooooooooooooo++++++ooooooooooooooooooooooooooooooooo+++++++++ooo+++XXXoooooooooooooooooooooooo++++++oooooooooooooooooooooooooooooo++++++ooooooooooooooooooooooooooooooooooooooooooooooooooooooooooooooooo   O@@",
"@@O   oooooooooooooooooooooooooooooooooooooooooooooooooooooooo++++++ooooooooooooooooooooooooooooooooo+++++++++ooo+++ooooooooooooooooooooooooooo++++++oooooooooooooooooooooooooooooo++++++ooooooooooooooooooooooooooooooooooooooooooooooooooooooooooooooooo   O@@",
"@@O   oooooooooooooooooooooooooooooooooooooooooooooooooooooooo++++++++++++++++++oooooooooooooooooooooXXX++++++++++++ooooooooooooooooooooooooooo++++++oooooooooooooooooooooooooooooo++++++ooooooooooooooooooooooooooooooooooooooooooooooooooooooooooooooooo   O@@",
"@@O   oooooooooooooooooooooooooooooooooooooooooooooooooooooooo++++++++++++++++++oooooooooooooooooooooXXX++++++++++++ooooooooooooooooooooooooooo++++++oooooooooooooooooooooooooooooo++++++ooooooooooooooooooooooooooooooooooooooooooooooooooooooooooooooooo   O@@",
"@@O   oooooooooooooooooooooooooooooooooooooooooooooooooooooooo++++++++++++++++++oooooooooooooooooooooooo++++++++++++ooooooooooooooooooooooooooo++++++oooooooooooooooooooooooooooooo++++++ooooooooooooooooooooooooooooooooooooooooooooooooooooooooooooooooo   O@@",
"@@O   oooooooooooooooooooooooooooooooooooooooooooooooooooooooo+++++++++++++++XXXoooooooooooooooooooooooo+++++++++XXXooooooooooooooooooooooooooo++++++oooooooooooooooooooooooooooooo++++++ooooooooooooooooooooooooooooooooooooooooooooooooooooooooooooooooo   O@@",
"@@O   oooooooooooooooooooooooooooooooooooooooooooooooooooooooo+++++++++++++++XXXoooooooooooooooooooooooo+++++++++XXXooooooooooooooooooooooooooo++++++oooooooooooooooooooooooooooooo++++++ooooooooooooooooooooooooooooooooooooooooooooooooooooooooooooooooo   O@@",
"@@O   oooooooooooooooooooooooooooooooooooooooooooooooooooooooo+++++++++++++++ooooooooooooooooooooooooooo+++++++++oooooooooooooooooooooooooooooo++++++oooooooooooooooooooooooooooooo++++++ooooooooooooooooooooooooooooooooooooooooooooooooooooooooooooooooo   O@@",
"@@O   oooooooooooooooooooooooooooooooooooooooooooooooooooooooo++++++XXXXXXXXXoooooooooooooooooooooooooooXXX++++++oooooooooooooooooooooooooooooo++++++oooooooooooooooooooooooooooooo++++++ooooooooooooooooooooooooooooooooooooooooooooooooooooooooooooooooo   O@@",
"@@O   oooooooooooooooooooooooooooooooooooooooooooooooooooooooo++++++XXXXXXXXXoooooooooooooooooooooooooooXXX++++++oooooooooooooooooooooooooooooo++++++oooooooooooooooooooooooooooooo++++++ooooooooooooooooooooooooooooooooooooooooooooooooooooooooooooooooo   O@@",
"@@O   oooooooooooooooooooooooooooooooooooooooooooooooooooooooo++++++ooooooooooooooooooooooooooooooooooooooo++++++oooooooooooooooooooooooooooooo++++++oooooooooooooooooooooooooooooo++++++ooooooooooooooooooooooooooooooooooooooooooooooooooooooooooooooooo   O@@",
"@@O   oooooooooooooooooooooooooooooooooooooooooooooooooooooooo++++++ooooooooooooooooooooooooooooooooooooooo+++++++++ooooooooooooooooooooooooooo++++++oooooooooooooooooooooooooooooo++++++ooooooooooooooooooooooooooooooooooooooooooooooooooooooooooooooooo   O@@",
"@@O   oooooooooooooooooooooooooooooooooooooooooooooooooooooooo++++++ooooooooooooooooooooooooooooooooooooooo+++++++++ooooooooooooooooooooooooooo++++++oooooooooooooooooooooooooooooo++++++ooooooooooooooooooooooooooooooooooooooooooooooooooooooooooooooooo   O@@",
"@@O   oooooooooooooooooooooooooooooooooooooooooooooooooooooooo++++++ooooooooooooooooooooooooooooooooooooooo+++++++++ooooooooooooooooooooooooooo++++++oooooooooooooooooooooooooooooo++++++ooooooooooooooooooooooooooooooooooooooooooooooooooooooooooooooooo   O@@",
"@@O   oooooooooooooooooooooooooooooooooooooooooooooooooooooooo++++++oooooooooooooooooooooooooooooooooooo++++++++++++ooooooooooooooooooooooooooo++++++oooooooooooooooooooooooooooooo++++++ooooooooooooooooooooooooooooooooooooooooooooooooooooooooooooooooo   O@@",
"@@O   oooooooooooooooooooooooooooooooooooooooooooooooooooooooo++++++oooooooooooooooooooooooooooooooooooo++++++++++++ooooooooooooooooooooooooooo++++++oooooooooooooooooooooooooooooo++++++ooooooooooooooooooooooooooooooooooooooooooooooooooooooooooooooooo   O@@",
"@@O   oooooooooooooooooooooooooooooooooooooooooooooooooooooooo++++++oooooooooooooooooooooooooooooooooooo++++++++++++ooooooooooooooooooooooooooo++++++oooooooooooooooooooooooooooooo++++++ooooooooooooooooooooooooooooooooooooooooooooooooooooooooooooooooo   O@@",
"@@O   oooooooooooooooooooooooooooooooooooooooooooooooooooooooo++++++oooooooooooooooooooooooooooooooooooo+++XXX+++++++++oooooooooooooooooooooooo++++++oooooooooooooooooooooooooooooo++++++ooooooooooooooooooooooooooooooooooooooooooooooooooooooooooooooooo   O@@",
"@@O   oooooooooooooooooooooooooooooooooooooooooooooooooooooooo++++++oooooooooooooooooooooooooooooooooooo+++XXX+++++++++oooooooooooooooooooooooo++++++oooooooooooooooooooooooooooooo++++++ooooooooooooooooooooooooooooooooooooooooooooooooooooooooooooooooo   O@@",
"@@O   oooooooooooooooooooooooooooooooooooooooooooooooooooooooo++++++oooooooooooooooooooooooooooooooooooo+++ooo+++++++++oooooooooooooooooooooooo++++++oooooooooooooooooooooooooooooo++++++ooooooooooooooooooooooooooooooooooooooooooooooooooooooooooooooooo   O@@",
"@@O   oooooooooooooooooooooooooooooooooooooooooooooooooooooooo++++++ooooooooooooooo+++ooooooooooooooo++++++oooXXX++++++oooooooooooooooooooooooo++++++oooooooooooooooooooooooooooooo+++++++++oooooooooooooooooooooooooooooooooooooooooooooooooooooooooooooo   O@@",
"@@O   oooooooooooooooooooooooooooooooooooooooooooooooooooooooo++++++ooooooooooooooo+++ooooooooooooooo++++++oooXXX++++++oooooooooooooooooooooooo++++++oooooooooooooooooooooooooooooo+++++++++oooooooooooooooooooooooooooooooooooooooooooooooooooooooooooooo   O@@",
"@@O   oooooooooooooooooooooooooooooooooooooooooooooooooooooooo++++++ooooooooooooooo+++ooooooooooooooo++++++oooooo++++++oooooooooooooooooooooooo++++++oooooooooooooooooooooooooooooo+++++++++oooooooooooooooooooooooooooooooooooooooooooooooooooooooooooooo   O@@",
"@@O   oooooooooooooooooooooooooooooooooooooooooooooooooooooooo+++++++++++++++++++++XXXooooooooooooooo+++XXXoooooo+++++++++ooooooooooooooooooooo++++++oooooooooooooooooooooooooooooo++++++XXXoooooooooooooooooooooooooooooooooooooooooooooooooooooooooooooo   O@@",
"@@O   oooooooooooooooooooooooooooooooooooooooooooooooooooooooo+++++++++++++++++++++XXXooooooooooooooo+++XXXoooooo+++++++++ooooooooooooooooooooo++++++oooooooooooooooooooooooooooooo++++++XXXoooooooooooooooooooooooooooooooooooooooooooooooooooooooooooooo   O@@",
"@@O   oooooooooooooooooooooooooooooooooooooooooooooooooooooooo+++++++++++++++++++++oooooooooooooooooo+++ooooooooo+++++++++ooooooooooooooooooooo++++++oooooooooooooooooooooooooooooo++++++ooooooooooooooooooooooooooooooooooooooooooooooooooooooooooooooooo   O@@",
"@@O   ooooooooooooooooooooooooooooooooooooooooooooooooooooooooXXX+++++++++++++++XXXooooooooooooooo+++XXXoooooooooXXX+++XXXooooooooooooooooooooo+++XXXoooooooooooooooooooooooooooooo+++XXXooooooooooooooooooooooooooooooooooooooooooooooooooooooooooooooooo   O@@",
"@@O   ooooooooooooooooooooooooooooooooooooooooooooooooooooooooXXX+++++++++++++++XXXooooooooooooooo+++XXXoooooooooXXX+++XXXooooooooooooooooooooo+++XXXoooooooooooooooooooooooooooooo+++XXXooooooooooooooooooooooooooooooooooooooooooooooooooooooooooooooooo   O@@",
"@@O   .oooooooooooooooooooooooooooooooooooooooooooooooooooooooooo+++++++++++++++oooooooooooooooooo+++ooooooooooooooo+++oooooooooooooooooooooooo+++ooooooooooooooooooooooooooooooooo+++ooooooooooooooooooooooooooooooooooooooooooooooooooooooooooooooooooo.   O@@",
"@@O   .ooooooooooooooooooooooooooooooooooooooooooooooooooooooooooXXXXXXXXXXXXXXXooooooooooooooooooXXXoooooooooooooooXXXooooooooooooooooooooooooXXXoooooooooooooooooooooooooooooooooXXXooooooooooooooooooooooooooooooooooooooooooooooooooooooooooooooooooo.   O@@",
"@@O   .ooooooooooooooooooooooooooooooooooooooooooooooooooooooooooXXXXXXXXXXXXXXXooooooooooooooooooXXXoooooooooooooooXXXooooooooooooooooooooooooXXXoooooooooooooooooooooooooooooooooXXXooooooooooooooooooooooooooooooooooooooooooooooooooooooooooooooooooo.   O@@",
"@@O   ..oooooooooooooooooooooooooooooooooooooooooooooooooooooooooooooooooooooooooooooooooooooooooooooooooooooooooooooooooooooooooooooooooooooooooooooooooooooooooooooooooooooooooooooooooooooooooooooooooooooooooooooooooooooooooooooooooooooooooooooooo..   O@@",
"@@O    .oooooooooooooooooooooooooooooooooooooooooooooooooooooooooooooooooooooooooooooooooooooooooooooooooooooooooooooooooooooooooooooooooooooooooooooooooooooooooooooooooooooooooooooooooooooooooooooooooooooooooooooooooooooooooooooooooooooooooooooooo.    O@@",
"@@O    ..oooooooooooooooooooooooooooooooooooooooooooooooooooooooooooooooooooooooooooooooooooooooooooooooooooooooooooooooooooooooooooooooooooooooooooooooooooooooooooooooooooooooooooooooooooooooooooooooooooooooooooooooooooooooooooooooooooooooooooooo..    O@@",
"@@O    ....oooooooooooooooooooooooooooooooooooooooooooooooooooooooooooooooooooooooooooooooooooooooooooooooooooooooooooooooooooooooooooooooooooooooooooooooooooooooooooooooooooooooooooooooooooooooooooooooooooooooooooooooooooooooooooooooooooooooooo....    O@@",
"@@O     ......oooooooooooooooooooooooooooooooooooooooooooooooooooooooooooooooooooooooooooooooooooooooooooooooooooooooooooooooooooooooooooooooooooooooooooooooooooooooooooooooooooooooooooooooooooooooooooooooooooooooooooooooooooooooooooooooooooo......     O@@",
"@@@O    ................................................................................................................................................................................................................................................    O@@@",
"@@@O     ..............................................................................................................................................................................................................................................     O@@@",
"@@@O       ..........................................................................................................................................................................................................................................       O@@@",
"@@@@O         ....................................................................................................................................................................................................................................         O@@@@",
"@@@@O                                                                                                                                                                                                                                                      O@@@@",
"@@@@@OO                                                                                                                                                                                                                                                  OO@@@@@",
"@@@@@@@OOO                                                                                                                                                                                                                                            OOO@@@@@@@",
"@@@@@@@@@@OOOOOOOOOOOOOOOOOOOOOOOOOOOOOOOOOOOOOOOOOOOOOOOOOOOOOOOOOOOOOOOOOOOOOOOOOOOOOOOOOOOOOOOOOOOOOOOOOOOOOOOOOOOOOOOOOOOOOOOOOOOOOOOOOOOOOOOOOOOOOOOOOOOOOOOOOOOOOOOOOOOOOOOOOOOOOOOOOOOOOOOOOOOOOOOOOOOOOOOOOOOOOOOOOOOOOOOOOOOOOOOOOOOOOOOOOOOO@@@@@@@@@@",
"@@@@@@@@@@@@@@@@@@@@@@@@@@@@@@@@@@@@@@@@@@@@@@@@@@@@@@@@@@@@@@@@@@@@@@@@@@@@@@@@@@@@@@@@@@@@@@@@@@@@@@@@@@@@@@@@@@@@@@@@@@@@@@@@@@@@@@@@@@@@@@@@@@@@@@@@@@@@@@@@@@@@@@@@@@@@@@@@@@@@@@@@@@@@@@@@@@@@@@@@@@@@@@@@@@@@@@@@@@@@@@@@@@@@@@@@@@@@@@@@@@@@@@@@@@@@@@@@",
"@@@@@@@@@@@@@@@@@@@@@@@@@@@@@@@@@@@@@@@@@@@@@@@@@@@@@@@@@@@@@@@@@@@@@@@@@@@@@@@@@@@@@@@@@@@@@@@@@@@@@@@@@@@@@@@@@@@@@@@@@@@@@@@@@@@@@@@@@@@@@@@@@@@@@@@@@@@@@@@@@@@@@@@@@@@@@@@@@@@@@@@@@@@@@@@@@@@@@@@@@@@@@@@@@@@@@@@@@@@@@@@@@@@@@@@@@@@@@@@@@@@@@@@@@@@@@@@@"
};
