/* XPM */
static char *result[] = {
/* columns rows colors chars-per-pixel */
"256 64 7 1 ",
"  c #1C1E33",
". c #393268",
"X c #432F5B",
"o c #534B82",
"O c #646DB7",
"+ c #F2E8FF",
"@ c None",
/* pixels */
"@@@@@@@@@@@@@@@@@@@@@@@@@@@@@@@@@@@@@@@@@@@@@@@@@@@@@@@@@@@@@@@@@@@@@@@@@@@@@@@@@@@@@@@@@@@@@@@@@@@@@@@@@@@@@@@@@@@@@@@@@@@@@@@@@@@@@@@@@@@@@@@@@@@@@@@@@@@@@@@@@@@@@@@@@@@@@@@@@@@@@@@@@@@@@@@@@@@@@@@@@@@@@@@@@@@@@@@@@@@@@@@@@@@@@@@@@@@@@@@@@@@@@@@@@@@@@@@@",
"@@@@@@@@@@@@@@@@@@@@@@@@@@@@@@@@@@@@@@@@@@@@@@@@@@@@@@@@@@@@@@@@@@@@@@@@@@@@@@@@@@@@@@@@@@@@@@@@@@@@@@@@@@@@@@@@@@@@@@@@@@@@@@@@@@@@@@@@@@@@@@@@@@@@@@@@@@@@@@@@@@@@@@@@@@@@@@@@@@@@@@@@@@@@@@@@@@@@@@@@@@@@@@@@@@@@@@@@@@@@@@@@@@@@@@@@@@@@@@@@@@@@@@@@@@@@@@@@",
"@@@@@@@@@@OOOOOOOOOOOOOOOOOOOOOOOOOOOOOOOOOOOOOOOOOOOOOOOOOOOOOOOOOOOOOOOOOOOOOOOOOOOOOOOOOOOOOOOOOOOOOOOOOOOOOOOOOOOOOOOOOOOOOOOOOOOOOOOOOOOOOOOOOOOOOOOOOOOOOOOOOOOOOOOOOOOOOOOOOOOOOOOOOOOOOOOOOOOOOOOOOOOOOOOOOOOOOOOOOOOOOOOOOOOOOOOOOOOOOOOOOOOO@@@@@@@@@@",
"@@@@@@@OOO                                                                                                                                                                                                                                            OOO@@@@@@@",
"@@@@@OO                                                                                                                                                                                                                                                  OO@@@@@",
"@@@@O         oooooooooooooooooooooooooooooooooooooooooooooooooooooooooooooooooooooooooooooooooooooooooooooooooooooooooooooooooooooooooooooooooooooooooooooooooooooooooooooooooooooooooooooooooooooooooooooooooooooooooooooooooooooooooooooooooooo         O@@@@",
"@@@@O      oooooooooooooooooooooooooooooooooooooooooooooooooooooooooooooooooooooooooooooooooooooooooooooooooooooooooooooooooooooooooooooooooooooooooooooooooooooooooooooooooooooooooooooooooooooooooooooooooooooooooooooooooooooooooooooooooooooooooo      O@@@@",
"@@@O     oooooooooooooooooooooooooooooooooooooooooooooooooooooooooooooooooooooooooooooooooooooooooooooooooooooooooooooooooooooooooooooooooooooooooooooooooooooooooooooooooooooooooooooooooooooooooooooooooooooooooooooooooooooooooooooooooooooooooooooo     O@@@",
"@@@O    oooooooooooooooooooooooooooooooooooooooooooooooooooooooooooo++++++++++++ooooooooooooooooooooo+++oooooooooooooooooooooooooooooooooooooooooo+++oooooooooooooooooooooooo+++ooooooooooooooo+++oooooooooooooooooooooooooooooooooooooooooooooooooooooo    O@@@",
"@@O     oooooooooooooooooooooooooooooooooooooooooooooooooooooooooooo++++++++++++ooooooooooooooooooooo+++oooooooooooooooooooooooooooooooooooooooooo+++oooooooooooooooooooooooo+++ooooooooooooooo+++oooooooooooooooooooooooooooooooooooooooooooooooooooooo    O@@@",
"@@O    ooooooooooooooooooooooooooooooooooooooooooooooooooooooooooooo++++++++++++ooooooooooooooooooooo+++oooooooooooooooooooooooooooooooooooooooooo+++oooooooooooooooooooooooo+++ooooooooooooooo+++ooooooooooooooooooooooooooooooooooooooooooooooooooooooo    O@@",
"@@O    oooooooooooooooooooooooooooooooooooooooooooooooooooooooooo++++++++++++++++++ooooooooooooooo++++++ooooooooooooooooooooooooooooooooooooooo++++++ooooooooooooooooooooo++++++oooooooooooo++++++ooooooooooooooooooooooooooooooooooooooooooooooooooooooo    O@@",
"@@O    oooooooooooooooooooooooooooooooooooooooooooooooooooooooooo++++++++++++++++++ooooooooooooooo++++++ooooooooooooooooooooooooooooooooooooooo++++++ooooooooooooooooooooo++++++oooooooooooo++++++ooooooooooooooooooooooooooooooooooooooooooooooooooooooo    O@@",
"@@O   ooooooooooooooooooooooooooooooooooooooooooooooooooooooooooo++++++++++++++++++ooooooooooooooo++++++ooooooooooooooooooooooooooooooooooooooo++++++ooooooooooooooooooooo++++++oooooooooooo++++++oooooooooooooooooooooooooooooooooooooooooooooooooooooooo   O@@",
"@@O   oooooooooooooooooooooooooooooooooooooooooooooooooooooooo++++++XXXXXX++++++++++++oooooooooooo++++++ooooooooooooooooooooooooooooooooooooooo+++++++++oooooooooooooooooo+++++++++ooooooooo+++XXXoooooooooooooooooooooooooooooooooooooooooooooooooooooooo   O@@",
"@@O   oooooooooooooooooooooooooooooooooooooooooooooooooooooooo++++++XXXXXX++++++++++++oooooooooooo++++++ooooooooooooooooooooooooooooooooooooooo+++++++++oooooooooooooooooo+++++++++ooooooooo+++XXXoooooooooooooooooooooooooooooooooooooooooooooooooooooooo   O@@",
"@@O   oooooooooooooooooooooooooooooooooooooooooooooooooooooooo++++++oooooo++++++++++++oooooooooooo++++++ooooooooooooooooooooooooooooooooooooooo+++++++++oooooooooooooooooo+++++++++ooooooooo+++ooooooooooooooooooooooooooooooooooooooooooooooooooooooooooo   O@@",
"@@O   oooooooooooooooooooooooooooooooooooooooooooooooooooooooo++++++ooooooXXX+++++++++oooooooooooo++++++oooooooooooooooooooooooooooooooooooo++++++++++++ooooooooooooooooooXXX++++++oooooo++++++ooooooooooooooooooooooooooooooooooooooooooooooooooooooooooo   O@@",
"@@O   oooooooooooooooooooooooooooooooooooooooooooooooooooooooo++++++ooooooXXX+++++++++oooooooooooo++++++oooooooooooooooooooooooooooooooooooo++++++++++++ooooooooooooooooooXXX++++++oooooo++++++ooooooooooooooooooooooooooooooooooooooooooooooooooooooooooo   O@@",
"@@O   oooooooooooooooooooooooooooooooooooooooooooooooooooooooo++++++ooooooooo+++++++++oooooooooooo++++++oooooooooooooooooooooooooooooooooooo++++++++++++ooooooooooooooooooooo++++++oooooo++++++ooooooooooooooooooooooooooooooooooooooooooooooooooooooooooo   O@@",
"@@O   oooooooooooooooooooooooooooooooooooooooooooooooooooooooo++++++oooooooooXXX++++++oooooooooooo++++++oooooooooooooooooooooooooooooooooooo+++XXX++++++ooooooooooooooooooooo+++++++++ooo+++XXXooooooooooooooooooooooooooooooooooooooooooooooooooooooooooo   O@@",
"@@O   oooooooooooooooooooooooooooooooooooooooooooooooooooooooo++++++oooooooooXXX++++++oooooooooooo++++++oooooooooooooooooooooooooooooooooooo+++XXX++++++ooooooooooooooooooooo+++++++++ooo+++XXXooooooooooooooooooooooooooooooooooooooooooooooooooooooooooo   O@@",
"@@O   oooooooooooooooooooooooooooooooooooooooooooooooooooooooo++++++oooooooooooo++++++oooooooooooo++++++oooooooooooooooooooooooooooooooooooo+++ooo++++++ooooooooooooooooooooo+++++++++ooo+++oooooooooooooooooooooooooooooooooooooooooooooooooooooooooooooo   O@@",
"@@O   oooooooooooooooooooooooooooooooooooooooooooooooooooooooo++++++ooooooooo++++++XXXoooooooooooo++++++ooooooooooooooooooooooooooooooooo++++++ooo+++++++++ooooooooooooooooooXXX++++++++++++oooooooooooooooooooooooooooooooooooooooooooooooooooooooooooooo   O@@",
"@@O   oooooooooooooooooooooooooooooooooooooooooooooooooooooooo++++++ooooooooo++++++XXXoooooooooooo++++++ooooooooooooooooooooooooooooooooo++++++ooo+++++++++ooooooooooooooooooXXX++++++++++++oooooooooooooooooooooooooooooooooooooooooooooooooooooooooooooo   O@@",
"@@O   oooooooooooooooooooooooooooooooooooooooooooooooooooooooo++++++ooooooooo++++++ooooooooooooooo++++++ooooooooooooooooooooooooooooooooo++++++ooo+++++++++ooooooooooooooooooooo++++++++++++oooooooooooooooooooooooooooooooooooooooooooooooooooooooooooooo   O@@",
"@@O   oooooooooooooooooooooooooooooooooooooooooooooooooooooooo++++++++++++++++++XXXooooooooooooooo++++++ooooooooooooooooooooooooooooooooo+++XXXoooXXX++++++ooooooooooooooooooooo+++++++++XXXoooooooooooooooooooooooooooooooooooooooooooooooooooooooooooooo   O@@",
"@@O   oooooooooooooooooooooooooooooooooooooooooooooooooooooooo++++++++++++++++++XXXooooooooooooooo++++++ooooooooooooooooooooooooooooooooo+++XXXoooXXX++++++ooooooooooooooooooooo+++++++++XXXoooooooooooooooooooooooooooooooooooooooooooooooooooooooooooooo   O@@",
"@@O   oooooooooooooooooooooooooooooooooooooooooooooooooooooooo++++++++++++++++++oooooooooooooooooo++++++ooooooooooooooooooooooooooooooooo+++ooooooooo++++++ooooooooooooooooooooo+++++++++ooooooooooooooooooooooooooooooooooooooooooooooooooooooooooooooooo   O@@",
"@@O   oooooooooooooooooooooooooooooooooooooooooooooooooooooooo+++++++++++++++XXXoooooooooooooooooo++++++ooooooooooooooooooooooooooooooooo+++ooooooooo+++++++++ooooooooooooooooooXXX++++++ooooooooooooooooooooooooooooooooooooooooooooooooooooooooooooooooo   O@@",
"@@O   oooooooooooooooooooooooooooooooooooooooooooooooooooooooo+++++++++++++++XXXoooooooooooooooooo++++++ooooooooooooooooooooooooooooooooo+++ooooooooo+++++++++ooooooooooooooooooXXX++++++ooooooooooooooooooooooooooooooooooooooooooooooooooooooooooooooooo   O@@",
"@@O   oooooooooooooooooooooooooooooooooooooooooooooooooooooooo+++++++++++++++ooooooooooooooooooooo++++++ooooooooooooooooooooooooooooooooo+++ooooooooo+++++++++ooooooooooooooooooooo++++++ooooooooooooooooooooooooooooooooooooooooooooooooooooooooooooooooo   O@@",
"@@O   oooooooooooooooooooooooooooooooooooooooooooooooooooooooo++++++XXXXXXXXXooooooooooooooooooooo++++++oooooooooooooooooooooooooooooo++++++++++++++++++++++++ooooooooooooooooooooo++++++ooooooooooooooooooooooooooooooooooooooooooooooooooooooooooooooooo   O@@",
"@@O   oooooooooooooooooooooooooooooooooooooooooooooooooooooooo++++++XXXXXXXXXooooooooooooooooooooo++++++oooooooooooooooooooooooooooooo++++++++++++++++++++++++ooooooooooooooooooooo++++++ooooooooooooooooooooooooooooooooooooooooooooooooooooooooooooooooo   O@@",
"@@O   oooooooooooooooooooooooooooooooooooooooooooooooooooooooo++++++oooooooooooooooooooooooooooooo++++++oooooooooooooooooooooooooooooo++++++++++++++++++++++++ooooooooooooooooooooo++++++ooooooooooooooooooooooooooooooooooooooooooooooooooooooooooooooooo   O@@",
"@@O   oooooooooooooooooooooooooooooooooooooooooooooooooooooooo++++++oooooooooooooooooooooooooooooo++++++oooooooooooooooooooooooooooooo++++++++++++++++++++++++ooooooooooooooooooooo++++++ooooooooooooooooooooooooooooooooooooooooooooooooooooooooooooooooo   O@@",
"@@O   oooooooooooooooooooooooooooooooooooooooooooooooooooooooo++++++oooooooooooooooooooooooooooooo++++++oooooooooooooooooooooooooooooo++++++++++++++++++++++++ooooooooooooooooooooo++++++ooooooooooooooooooooooooooooooooooooooooooooooooooooooooooooooooo   O@@",
"@@O   oooooooooooooooooooooooooooooooooooooooooooooooooooooooo++++++oooooooooooooooooooooooooooooo++++++oooooooooooooooooooooooooooooo++++++++++++++++++++++++ooooooooooooooooooooo++++++ooooooooooooooooooooooooooooooooooooooooooooooooooooooooooooooooo   O@@",
"@@O   oooooooooooooooooooooooooooooooooooooooooooooooooooooooo++++++oooooooooooooooooooooooooooooo++++++oooooooooooooooooooooooooooooo++++++XXXXXXXXXXXX++++++ooooooooooooooooooooo++++++ooooooooooooooooooooooooooooooooooooooooooooooooooooooooooooooooo   O@@",
"@@O   oooooooooooooooooooooooooooooooooooooooooooooooooooooooo++++++oooooooooooooooooooooooooooooo++++++oooooooooooooooooooooooooooooo++++++XXXXXXXXXXXX++++++ooooooooooooooooooooo++++++ooooooooooooooooooooooooooooooooooooooooooooooooooooooooooooooooo   O@@",
"@@O   oooooooooooooooooooooooooooooooooooooooooooooooooooooooo++++++oooooooooooooooooooooooooooooo++++++oooooooooooooooooooooooooooooo++++++oooooooooooo++++++ooooooooooooooooooooo++++++ooooooooooooooooooooooooooooooooooooooooooooooooooooooooooooooooo   O@@",
"@@O   oooooooooooooooooooooooooooooooooooooooooooooooooooooooo+++++++++ooooooooooooooooooooooooooo++++++ooooooooooooooo+++oooooooooooo++++++oooooooooooo++++++ooooooooooooooooooooo+++++++++oooooooooooooooooooooooooooooooooooooooooooooooooooooooooooooo   O@@",
"@@O   oooooooooooooooooooooooooooooooooooooooooooooooooooooooo+++++++++ooooooooooooooooooooooooooo++++++ooooooooooooooo+++oooooooooooo++++++oooooooooooo++++++ooooooooooooooooooooo+++++++++oooooooooooooooooooooooooooooooooooooooooooooooooooooooooooooo   O@@",
"@@O   oooooooooooooooooooooooooooooooooooooooooooooooooooooooo+++++++++ooooooooooooooooooooooooooo++++++ooooooooooooooo+++oooooooooooo++++++oooooooooooo++++++ooooooooooooooooooooo+++++++++oooooooooooooooooooooooooooooooooooooooooooooooooooooooooooooo   O@@",
"@@O   oooooooooooooooooooooooooooooooooooooooooooooooooooooooo++++++XXXooooooooooooooooooooooooooo+++++++++++++++++++++XXXoooooooooooo++++++oooooooooooo++++++ooooooooooooooooooooo++++++XXXoooooooooooooooooooooooooooooooooooooooooooooooooooooooooooooo   O@@",
"@@O   oooooooooooooooooooooooooooooooooooooooooooooooooooooooo++++++XXXooooooooooooooooooooooooooo+++++++++++++++++++++XXXoooooooooooo++++++oooooooooooo++++++ooooooooooooooooooooo++++++XXXoooooooooooooooooooooooooooooooooooooooooooooooooooooooooooooo   O@@",
"@@O   oooooooooooooooooooooooooooooooooooooooooooooooooooooooo++++++oooooooooooooooooooooooooooooo+++++++++++++++++++++ooooooooooooooo++++++oooooooooooo++++++ooooooooooooooooooooo++++++ooooooooooooooooooooooooooooooooooooooooooooooooooooooooooooooooo   O@@",
"@@O   oooooooooooooooooooooooooooooooooooooooooooooooooooooooo+++XXXooooooooooooooooooooooooooooooXXX+++++++++++++++XXXooooooooooooooo+++XXXoooooooooooo+++XXXooooooooooooooooooooo+++XXXooooooooooooooooooooooooooooooooooooooooooooooooooooooooooooooooo   O@@",
"@@O   oooooooooooooooooooooooooooooooooooooooooooooooooooooooo+++XXXooooooooooooooooooooooooooooooXXX+++++++++++++++XXXooooooooooooooo+++XXXoooooooooooo+++XXXooooooooooooooooooooo+++XXXooooooooooooooooooooooooooooooooooooooooooooooooooooooooooooooooo   O@@",
"@@O   .ooooooooooooooooooooooooooooooooooooooooooooooooooooooo+++oooooooooooooooooooooooooooooooooooo+++++++++++++++oooooooooooooooooo+++ooooooooooooooo+++oooooooooooooooooooooooo+++ooooooooooooooooooooooooooooooooooooooooooooooooooooooooooooooooooo.   O@@",
"@@O    oooooooooooooooooooooooooooooooooooooooooooooooooooooooXXXooooooooooooooooooooooooooooooooooooXXXXXXXXXXXXXXXooooooooooooooooooXXXoooooooooooooooXXXooooooooooooooooooooooooXXXooooooooooooooooooooooooooooooooooooooooooooooooooooooooooooooooooo    O@@",
"@@O    oooooooooooooooooooooooooooooooooooooooooooooooooooooooXXXooooooooooooooooooooooooooooooooooooXXXXXXXXXXXXXXXooooooooooooooooooXXXoooooooooooooooXXXooooooooooooooooooooooooXXXooooooooooooooooooooooooooooooooooooooooooooooooooooooooooooooooooo    O@@",
"@@O    .oooooooooooooooooooooooooooooooooooooooooooooooooooooooooooooooooooooooooooooooooooooooooooooooooooooooooooooooooooooooooooooooooooooooooooooooooooooooooooooooooooooooooooooooooooooooooooooooooooooooooooooooooooooooooooooooooooooooooooooooo.    O@@",
"@@O     oooooooooooooooooooooooooooooooooooooooooooooooooooooooooooooooooooooooooooooooooooooooooooooooooooooooooooooooooooooooooooooooooooooooooooooooooooooooooooooooooooooooooooooooooooooooooooooooooooooooooooooooooooooooooooooooooooooooooooooooo     O@@",
"@@@O    .oooooooooooooooooooooooooooooooooooooooooooooooooooooooooooooooooooooooooooooooooooooooooooooooooooooooooooooooooooooooooooooooooooooooooooooooooooooooooooooooooooooooooooooooooooooooooooooooooooooooooooooooooooooooooooooooooooooooooooooo.    O@@@",
"@@@O     ..oooooooooooooooooooooooooooooooooooooooooooooooooooooooooooooooooooooooooooooooooooooooooooooooooooooooooooooooooooooooooooooooooooooooooooooooooooooooooooooooooooooooooooooooooooooooooooooooooooooooooooooooooooooooooooooooooooooooooo..     O@@@",
"@@@O       ...oooooooooooooooooooooooooooooooooooooooooooooooooooooooooooooooooooooooooooooooooooooooooooooooooooooooooooooooooooooooooooooooooooooooooooooooooooooooooooooooooooooooooooooooooooooooooooooooooooooooooooooooooooooooooooooooooooo...       O@@@",
"@@@@O         ....................................................................................................................................................................................................................................         O@@@@",
"@@@@O                                                                                                                                                                                                                                                      O@@@@",
"@@@@@OO                                                                                                                                                                                                                                                  OO@@@@@",
"@@@@@@@OOO                                                                                                                                                                                                                                            OOO@@@@@@@",
"@@@@@@@@@@OOOOOOOOOOOOOOOOOOOOOOOOOOOOOOOOOOOOOOOOOOOOOOOOOOOOOOOOOOOOOOOOOOOOOOOOOOOOOOOOOOOOOOOOOOOOOOOOOOOOOOOOOOOOOOOOOOOOOOOOOOOOOOOOOOOOOOOOOOOOOOOOOOOOOOOOOOOOOOOOOOOOOOOOOOOOOOOOOOOOOOOOOOOOOOOOOOOOOOOOOOOOOOOOOOOOOOOOOOOOOOOOOOOOOOOOOOOO@@@@@@@@@@",
"@@@@@@@@@@@@@@@@@@@@@@@@@@@@@@@@@@@@@@@@@@@@@@@@@@@@@@@@@@@@@@@@@@@@@@@@@@@@@@@@@@@@@@@@@@@@@@@@@@@@@@@@@@@@@@@@@@@@@@@@@@@@@@@@@@@@@@@@@@@@@@@@@@@@@@@@@@@@@@@@@@@@@@@@@@@@@@@@@@@@@@@@@@@@@@@@@@@@@@@@@@@@@@@@@@@@@@@@@@@@@@@@@@@@@@@@@@@@@@@@@@@@@@@@@@@@@@@@",
"@@@@@@@@@@@@@@@@@@@@@@@@@@@@@@@@@@@@@@@@@@@@@@@@@@@@@@@@@@@@@@@@@@@@@@@@@@@@@@@@@@@@@@@@@@@@@@@@@@@@@@@@@@@@@@@@@@@@@@@@@@@@@@@@@@@@@@@@@@@@@@@@@@@@@@@@@@@@@@@@@@@@@@@@@@@@@@@@@@@@@@@@@@@@@@@@@@@@@@@@@@@@@@@@@@@@@@@@@@@@@@@@@@@@@@@@@@@@@@@@@@@@@@@@@@@@@@@@"
};
