/* XPM */
static char *result[] = {
/* columns rows colors chars-per-pixel */
"32 32 8 1 ",
"  c #0C2251",
". c #113077",
"X c #3B65CE",
"o c #497DFF",
"O c #7CA1FF",
"+ c #B5CAFF",
"@ c #D1DDFF",
"# c None",
/* pixels */
"########@@++####################",
"######@@++OO+++#################",
"####@@++OOOOO+++OO##############",
"###@+++OOOOO++OOooO#############",
"##@++OOOOOO++OOooooO############",
"##@+OOOOOO@+OOooooooO###########",
"#@++OOOOO@+OOoooooooX###########",
"#@+OOOOO@+OOooooooooX###########",
"@+OOOOO@@OOooooooooXXX##########",
"@+OOOO@+OOooooooooXX X##########",
"+OOOO@+OOooooooooXX  X##########",
"+OOO++OOooooooooOX  ..X#########",
"#+O++OOooooooooOX  ...X#++O#####",
"#+++OOooooooooOX  ....X +ooX####",
"#++OOooooooooOO  .....X OoooX###",
"##+OooooooooOX  .....X  .Xoo.X##",
"##OooooooooOX  ......X  ..X... #",
"##OoooooooXX  ......   ....X.. #",
"###OoooooXX  .......   .....    ",
"####OoooXX  .......   ...... #  ",
"#####OXXX  ......    ++O.... ###",
"########XXX....XX   ++ooX.. ####",
"###########XXXX    .+ooooX. ####",
"#############    ...Ooooo.X#####",
"############++O......Xoo.. #####",
"############+ooX......X... #####",
"############OoooX......X    ####",
"#############Xoo.X...  ###  ####",
"##############X...   ###########",
"###############X.. #############",
"################    ############",
"##################  ############"
};
