/* XPM */
static char *result[] = {
/* columns rows colors chars-per-pixel */
"64 64 8 1 ",
"  c #0C2251",
". c #113077",
"X c #497DFF",
"o c #7CA1FF",
"O c #9BB6FF",
"+ c #B5CAFF",
"@ c #D1DDFF",
"# c None",
/* pixels */
"################################################################",
"################################################################",
"################################################################",
"################################################################",
"############################  ####  ############################",
"############################  ####  ############################",
"############################  ####  ############################",
"############################  ####  ############################",
"############################..####..############################",
"############################..####..############################",
"############################..####..############################",
"############################..####..############################",
"############################XX####XX############################",
"############################XX####XX############################",
"############################XX####XX############################",
"############################XX####XX############################",
"################oo##########oo####oo##########oo################",
"################oo##########oo####oo##########oo################",
"########################..XXoo####ooXX..########################",
"########################..XXoo####ooXX..########################",
"####################OO  ####oo####oo####  OO####################",
"####################OO  ####oo####oo####  OO####################",
"####################  ######++####++######  ####################",
"####################  ######++####++######  ####################",
"##################..######++########++######..##################",
"##################..######++########++######..##################",
"##################XX####++@@########@@++####XX##################",
"##################XX####++@@########@@++####XX##################",
"####    ....XXXXoooooo++####@@####@@####++ooooooXXXX....    ####",
"####    ....XXXXoooooo++####@@####@@####++ooooooXXXX....    ####",
"################################################################",
"################################################################",
"################################################################",
"################################################################",
"####    ....XXXXoooooo++####@@####@@####++ooooooXXXX....    ####",
"####    ....XXXXoooooo++####@@####@@####++ooooooXXXX....    ####",
"##################XX####++@@########@@++####XX##################",
"##################XX####++@@########@@++####XX##################",
"##################..######++########++######..##################",
"##################..######++########++######..##################",
"####################  ######++####++######  ####################",
"####################  ######++####++######  ####################",
"####################OO  ####oo####oo####  OO####################",
"####################OO  ####oo####oo####  OO####################",
"########################..XXoo####ooXX..########################",
"########################..XXoo####ooXX..########################",
"################oo##########oo####oo##########oo################",
"################oo##########oo####oo##########oo################",
"############################XX####XX############################",
"############################XX####XX############################",
"############################XX####XX############################",
"############################XX####XX############################",
"############################..####..############################",
"############################..####..############################",
"############################..####..############################",
"############################..####..############################",
"############################  ####  ############################",
"############################  ####  ############################",
"############################  ####  ############################",
"############################  ####  ############################",
"################################################################",
"################################################################",
"################################################################",
"################################################################"
};
