/* XPM */
static char *_9d47d48c87e4a43a6ea8ab2010657c69v4q239irnNptPsA[] = {
/* columns rows colors chars-per-pixel */
"32 32 8 1 ",
"  c None",
". c #0C2251",
"X c #113077",
"o c #497DFF",
"O c #7CA1FF",
"+ c #9BB6FF",
"@ c #B5CAFF",
"# c #D1DDFF",
/* pixels */
"                                ",
"                                ",
"              .  .              ",
"              .  .              ",
"              X  X              ",
"              X  X              ",
"              o  o              ",
"              o  o              ",
"        O     O  O     O        ",
"            XoO  OoX            ",
"          +.  O  O  .+          ",
"          .   @  @   .          ",
"         X   @    @   X         ",
"         o  @#    #@  o         ",
"  ..XXooOOO@  #  #  @OOOooXX..  ",
"                                ",
"                                ",
"  ..XXooOOO@  #  #  @OOOooXX..  ",
"         o  @#    #@  o         ",
"         X   @    @   X         ",
"          .   @  @   .          ",
"          +.  O  O  .+          ",
"            XoO  OoX            ",
"        O     O  O     O        ",
"              o  o              ",
"              o  o              ",
"              X  X              ",
"              X  X              ",
"              .  .              ",
"              .  .              ",
"                                ",
"                                "
};
