/* XPM */
static char *result[] = {
/* columns rows colors chars-per-pixel */
"64 64 15 1 ",
"  c black",
". c #210909",
"X c #350F0F",
"o c #491515",
"O c #561919",
"+ c #601B1B",
"@ c #601C1C",
"# c #7F2424",
"$ c #FF0010",
"% c #DB575C",
"& c #FF4747",
"* c #FF6868",
"= c #E07D7F",
"- c #FFBABC",
"; c None",
/* pixels */
";;;;;;;;;;;;;;;;;;;;;;;;;;;;;;;;;;;;;;;;;;;;;;;;;;;;;;;;;;;;;;;;",
";;;;;;;;;;;;;;;;;;;;;;;;;;;;;;;;;;;;;;;;;;;;;;;;;;;;;;;;;;;;;;;;",
";;;;;;;;;;;;;;;;;;;;;;;;;;;;;;;;;;;;;;;;;;;;;;;;;;;;;;;;;;;;;;;;",
";;;;;;;;;;;;;;;;;;;;;;;;;;;;;;;;;;;;;;;;;;;;;;;;;;;;;;;;;;;;;;;;",
";;;;;;;;--;;;;;;;;;;;;;;;;;;;;;;;;;;;;;;;;;;;;;;;;;;;;;;;;;;;;;;",
";;;;;;;;--;;;;;;;;;;;;;;;;;;;;;;;;;;;;;;;;;;;;;;;;;;;;;;;;;;;;;;",
";;;;;;--==----;;;;;;;;;;;;--;;;;;;;;;;;;;;;;;;;;;;;;;;;;;;;;;;;;",
";;;;;;--==----;;;;;;;;;;;;--;;;;;;;;;;;;;;;;;;;;;;;;;;;;;;;;;;;;",
";;;;==;;;;%%##--;;;;;;----##--;;;;;;;;;;;;;;;;;;;;;;;;;;;;;;;;;;",
";;;;==;;;;%%##--;;;;;;----##--;;;;;;;;;;;;;;;;;;;;;;;;;;;;;;;;;;",
";;;;;;;;;;%%##--;;;;--;;;;%%##----;;;;;;;;;;--------;;;;;;;;;;;;",
";;;;;;;;;;%%##--;;;;--;;;;%%##----;;;;;;;;;;--------;;;;;;;;;;;;",
";;;;;;;;;;;;==--;;;;;;;;;;;;%%##--;;;;;;;;--########--;;;;;;;;;;",
";;;;;;;;;;;;==--;;;;;;;;;;;;%%##--;;;;;;;;--########--;;;;;;;;;;",
";;;;;;;;;;;;====;;;;;;;;;;;;%%++==;;;;;;;;==++++%%##--;;;;;;;;;;",
";;;;;;;;;;;;====;;;;;;;;;;;;%%++==;;;;;;;;==++++%%##--;;;;;;;;;;",
";;;;;;;;;;;;====;;;;;;;;;;==++++==;;;;;;==++++%%;;%%==;;;;;;;;;;",
";;;;;;;;;;;;====;;;;;;;;;;==++++==;;;;;;==++++%%;;%%==;;;;;;;;;;",
";;;;;;;;;;====##==;;;;;;--##++++##--;;--##++##%%;;%%##--;;;;;;;;",
";;;;;;;;;;====##==;;;;;;--##++++##--;;--##++##%%;;%%##--;;;;;;;;",
";;;;;;;;;;%%++++##====..==##++++++==..==++++==;;;;;;==++--;;;;;;",
";;;;;;;;;;%%++++##====..==##++++++==..==++++==;;;;;;==++--;;;;;;",
";;;;;;;;;;%%++++++##==XX==++++++++==XX==++++==;;;;;;;;====--;;;;",
";;;;;;;;;;%%++++++##==XX==++++++++==XX==++++==;;;;;;;;====--;;;;",
";;;;;;;;;;%%++++++++==OO====++++++%%OO%%++++==....;;;;;;;;==;;;;",
";;;;;;;;;;%%++++++++==OO====++++++%%OO%%++++==....;;;;;;;;==;;;;",
";;;;;;;;;;%%%%==++++==  &&%%%%%%%%oooo%%%%%%++====....;;;;;;==;;",
";;;;;;;;;;%%%%==++++==  &&%%%%%%%%oooo%%%%%%++====....;;;;;;==;;",
";;;;;;....XXOO%%%%====  $$$$oooo@@@@@@oo%%%%%%%%==OOXX....;;;;;;",
";;;;;;....XXOO%%%%====  $$$$oooo@@@@@@oo%%%%%%%%==OOXX....;;;;;;",
";;....XXOO$$--------    @@@@@@oo****&&@@OOOOOO%%%%$$OOOOXX....;;",
";;....XXOO$$--------    @@@@@@oo****&&@@OOOOOO%%%%$$OOOOXX....;;",
";;....XXOO$$--######--  &&****XX&&&&&&@@----OOOO%%$$OOOO......;;",
";;....XXOO$$--######--  &&****XX&&&&&&@@----OOOO%%$$OOOO......;;",
";;;;;;....XX==##++++==  $$&&&&XX$$$$$$--####----%%OOXX....;;;;;;",
";;;;;;....XX==##++++==  $$&&&&XX$$$$$$--####----%%OOXX....;;;;;;",
";;;;;;;;..--##++++++%%OOXX------XXXX--++++++++##----....;;;;;;;;",
";;;;;;;;..--##++++++%%OOXX------XXXX--++++++++##----....;;;;;;;;",
";;;;;;;;--##++++++%%%%%%--####==--OO%%++++++++++##--;;;;;;;;;;;;",
";;;;;;;;--##++++++%%%%%%--####==--OO%%++++++++++##--;;;;;;;;;;;;",
";;;;;;--##==%%%%%%....%%%%++##++--%%%%%%%%%%==++++##--;;;;;;;;;;",
";;;;;;--##==%%%%%%....%%%%++##++--%%%%%%%%%%==++++##--;;;;;;;;;;",
";;;;;;==##%%;;;;;;;;......%%++++--XX......;;;;==++##--;;;;;;;;;;",
";;;;;;==##%%;;;;;;;;......%%++++--XX......;;;;==++##--;;;;;;;;;;",
";;;;==++%%;;;;;;;;;;;;;;..==++==......;;;;;;;;;;--##--;;;;;;;;;;",
";;;;==++%%;;;;;;;;;;;;;;..==++==......;;;;;;;;;;--##--;;;;;;;;;;",
";;;;==++%%;;;;;;;;;;;;;;--++++==;;;;;;;;;;;;;;;;==##==;;;;;;;;;;",
";;;;==++%%;;;;;;;;;;;;;;--++++==;;;;;;;;;;;;;;;;==##==;;;;;;;;;;",
";;;;;;====;;;;;;;;;;;;--++++++%%;;;;;;;;;;;;;;;;====;;;;;;;;;;;;",
";;;;;;====;;;;;;;;;;;;--++++++%%;;;;;;;;;;;;;;;;====;;;;;;;;;;;;",
";;;;;;====;;;;;;;;;;;;==++%%%%;;;;;;;;;;;;;;;;%%##==;;;;;;;;;;;;",
";;;;;;====;;;;;;;;;;;;==++%%%%;;;;;;;;;;;;;;;;%%##==;;;;;;;;;;;;",
";;;;;;;;====;;;;;;;;==##%%;;;;;;;;;;;;;;;;;;;;%%==;;;;;;;;;;;;;;",
";;;;;;;;====;;;;;;;;==##%%;;;;;;;;;;;;;;;;;;;;%%==;;;;;;;;;;;;;;",
";;;;;;;;;;;;==;;;;;;==%%;;;;;;;;;;;;;;;;;;;;;;%%==;;;;;;;;;;;;;;",
";;;;;;;;;;;;==;;;;;;==%%;;;;;;;;;;;;;;;;;;;;;;%%==;;;;;;;;;;;;;;",
";;;;;;;;;;;;;;;;;;;;==%%;;;;;;;;;;;;;;;;;;;;;;%%==;;;;;;;;;;;;;;",
";;;;;;;;;;;;;;;;;;;;==%%;;;;;;;;;;;;;;;;;;;;;;%%==;;;;;;;;;;;;;;",
";;;;;;;;;;;;;;;;;;;;==%%;;;;;;;;;;;;;;;;;;;;;;;;%%%%;;;;;;;;;;;;",
";;;;;;;;;;;;;;;;;;;;==%%;;;;;;;;;;;;;;;;;;;;;;;;%%%%;;;;;;;;;;;;",
";;;;;;;;;;;;;;;;;;;;;;==;;;;;;;;;;;;;;;;;;;;;;;;;;;;%%;;;;;;;;;;",
";;;;;;;;;;;;;;;;;;;;;;==;;;;;;;;;;;;;;;;;;;;;;;;;;;;%%;;;;;;;;;;",
";;;;;;;;;;;;;;;;;;;;;;;;;;;;;;;;;;;;;;;;;;;;;;;;;;;;;;;;;;;;;;;;",
";;;;;;;;;;;;;;;;;;;;;;;;;;;;;;;;;;;;;;;;;;;;;;;;;;;;;;;;;;;;;;;;"
};
