/* XPM */
static char *result[] = {
/* columns rows colors chars-per-pixel */
"64 64 12 1 ",
"  c #350F0F",
". c #491515",
"X c #601B1B",
"o c #601C1C",
"O c #7F2424",
"+ c red",
"@ c #DB575C",
"# c #FF4747",
"$ c #FF6868",
"% c #E07D7F",
"& c #FFBABC",
"* c None",
/* pixels */
"****************************************************************",
"****************************************************************",
"********&&&&&&&&&&&&&&********************&&&&&&&&&&&&&&********",
"********&&&&&&&&&&&&&&********************&&&&&&&&&&&&&&********",
"******&&&&%%%%%%OOOOOO&&****************&&OOOOOO%%%%%%&&&&******",
"******&&&&%%%%%%OOOOOO&&****************&&OOOOOO%%%%%%&&&&******",
"****&&@@@@******%%%%OOOO&&************&&OOOO%%%%******@@@@&&****",
"****&&@@@@******%%%%OOOO&&************&&OOOO%%%%******@@@@&&****",
"****@@**************%%XXXX&&********&&XXXX%%**************@@****",
"****@@**************%%XXXX&&********&&XXXX%%**************@@****",
"********************%%XXXX&&********&&XXXX%%********************",
"********************%%XXXX&&********&&XXXX%%********************",
"******&&&&&&**********%%..XX%%****%%XX..%%**********&&&&&&******",
"******&&&&&&**********%%..XX%%****%%XX..%%**********&&&&&&******",
"****&&OOOOOO&&&&******%%....XX%%%%XX....%%******&&&&OOOOOO&&****",
"****&&OOOOOO&&&&******%%....XX%%%%XX....%%******&&&&OOOOOO&&****",
"**&&OOOO%%XXXXXX&&**%%XXXX............XXXX%%**&&XXXXXX%%OOOO&&**",
"**&&OOOO%%XXXXXX&&**%%XXXX............XXXX%%**&&XXXXXX%%OOOO&&**",
"**&&OO%%**%%XXXX&&**%%XX................XX%%**&&XXXX%%**%%OO&&**",
"**&&OO%%**%%XXXX&&**%%XX................XX%%**&&XXXX%%**%%OO&&**",
"**&&%%******%%XXXX&&XX....................XX&&XXXX%%******%%&&**",
"**&&%%******%%XXXX&&XX....................XX&&XXXX%%******%%&&**",
"**&&%%******%%XXXX............................XXXX%%******%%&&**",
"**&&%%******%%XXXX............................XXXX%%******%%&&**",
"**%%%%********%%XX....oo................oo....XX%%********%%%%**",
"**%%%%********%%XX....oo................oo....XX%%********%%%%**",
"**@@%%********%%XX..  ++..oooo....oooo..++  ..XX%%********%%@@**",
"**@@%%********%%XX..  ++..oooo....oooo..++  ..XX%%********%%@@**",
"****@@@@****&&XXXX....  oo++##oooo##++oo  ....XXXX&&****@@@@****",
"****@@@@****&&XXXX....  oo++##oooo##++oo  ....XXXX&&****@@@@****",
"******@@****&&XX..oooo..  ++++    ++++  ..oooo..XX&&****@@******",
"******@@****&&XX..oooo..  ++++    ++++  ..oooo..XX&&****@@******",
"********@@**&&XX  ++##oo..    ....    oooo##++  XX&&**@@********",
"********@@**&&XX  ++##oo..    ....    oooo##++  XX&&**@@********",
"**************%%  ++++oo##$$$$oooo$$$$##oo++++  %%**************",
"**************%%  ++++oo##$$$$oooo$$$$##oo++++  %%**************",
"**************%%XX      ++####oooo####++      XX%%**************",
"**************%%XX      ++####oooo####++      XX%%**************",
"************%%XXXX%%XX  ++++++    ++++++  XX%%XXXX%%************",
"************%%XXXX%%XX  ++++++    ++++++  XX%%XXXX%%************",
"**********%%XXXX%%**%%XX      ....      XX%%**%%XXXX%%**********",
"**********%%XXXX%%**%%XX      ....      XX%%**%%XXXX%%**********",
"**********%%XX%%****%%OOXXXXXX%%%%XXXXXXOO%%****%%XX%%**********",
"**********%%XX%%****%%OOXXXXXX%%%%XXXXXXOO%%****%%XX%%**********",
"**********@@XX%%********OOXX%%****%%XXOO********%%XX@@**********",
"**********@@XX%%********OOXX%%****%%XXOO********%%XX@@**********",
"************%%OO@@****&&OO@@@@****@@@@OO&&****@@OO%%************",
"************%%OO@@****&&OO@@@@****@@@@OO&&****@@OO%%************",
"************%%OO@@**&&OO@@************@@OO&&**@@OO%%************",
"************%%OO@@**&&OO@@************@@OO&&**@@OO%%************",
"************%%OO@@**&&@@****************@@&&**@@OO%%************",
"************%%OO@@**&&@@****************@@&&**@@OO%%************",
"************%%OO@@**&&@@****************@@&&**@@OO%%************",
"************%%OO@@**&&@@****************@@&&**@@OO%%************",
"********%%%%OO@@****@@%%%%************%%%%@@****@@OO%%%%********",
"********%%%%OO@@****@@%%%%************%%%%@@****@@OO%%%%********",
"******@@@@@@@@********@@@@************@@@@********@@@@@@@@******",
"******@@@@@@@@********@@@@************@@@@********@@@@@@@@******",
"****@@******************@@@@********@@@@******************@@****",
"****@@******************@@@@********@@@@******************@@****",
"****************************************************************",
"****************************************************************",
"****************************************************************",
"****************************************************************"
};
