/* XPM */
static char *result[] = {
/* columns rows colors chars-per-pixel */
"64 64 18 1 ",
"  c #350F0F",
". c #491515",
"X c #601B1B",
"o c #601C1C",
"O c #502F2F",
"+ c #7F2424",
"@ c #613535",
"# c #753B3B",
"$ c #FF0000",
"% c #DB575C",
"& c #FF4747",
"* c #FF6060",
"= c #E07D7F",
"- c #FF7C7C",
"; c #FF8E8E",
": c #FFABAB",
"> c #FFBABC",
", c #000000",
/* pixels */
",,,,,,,,,,,,,,,,,,,,,,,,,,,,,,,,,,,,,,,,,,,,,,,,,,,,,,,,,,,,,,,,",
",,,,,,,,,,,,,,,,,,,,,,,,,,,,,,,,,,,,,,,,,,,,,,,,,,,,,,,,,,,,,,,,",
",,,,,,,,,,,,,,,,>>>>>>>>>>,,,,,,,,,,,,,,>>>>>>>>>>,,,,,,,,,,,,,,",
",,,,,,,,,,,,,,,,>>>>>>>>>>,,,,,,,,,,,,,,>>>>>>>>>>,,,,,,,,,,,,,,",
",,,,,,,,,,,,,,>>>>==++++++>>,,,,,,,,,,>>++++====>>>>,,,,,,,,,,,,",
",,,,,,,,,,,,,,>>>>==++++++>>,,,,,,,,,,>>++++====>>>>,,,,,,,,,,,,",
",,,,,,,,,,,,>>%%%%,,====++++>>,,,,,,>>++====,,%%%%>>,,,,,,,,,,,,",
",,,,,,,,,,,,>>%%%%,,====++++>>,,,,,,>>++====,,%%%%>>,,,,,,,,,,,,",
",,,,,,,,>>>>%%,,,,,,,,==XXXX>>,,,,,,>>XX==,,,,,,%%,,,,,,,,,,,,,,",
",,,,,,,,>>>>%%,,,,,,,,==XXXX>>,,,,,,>>XX==,,,,,,%%,,,,,,,,,,,,,,",
",,,,,,,,,,,,,,,,,,,,,,,,==XXXX>>,,>>XXXX==,,,,,,,,,,,,,,,,,,,,,,",
",,,,,,,,,,,,,,,,,,,,,,,,==XXXX>>,,>>XXXX==,,,,,,,,,,,,,,,,,,,,,,",
",,,,,,,,,,,,,,,,,,,,,,,,==..XX==,,==XX..==,,,,,,,,,,,,,,,,,,,,,,",
",,,,,,,,,,,,,,,,,,,,,,,,==..XX==,,==XX..==,,,,,,,,,,,,,,,,,,,,,,",
",,,,,,,,,,,,,,,,,,,,,,==....XX====XX....==,,,,,,,,>>>>>>>>,,,,,,",
",,,,,,,,,,,,,,,,,,,,,,==....XX====XX....==,,,,,,,,>>>>>>>>,,,,,,",
",,,,,,>>>>>>,,,,,,,,==XXXX............XXXX==,,,,>>XX++++++>>,,,,",
",,,,,,>>>>>>,,,,,,,,==XXXX............XXXX==,,,,>>XX++++++>>,,,,",
",,,,>>++++++>>>>>>,,==XX................XX==,,>>XXXXXX==++++>>,,",
",,,,>>++++++>>>>>>,,==XX................XX==,,>>XXXXXX==++++>>,,",
",,>>++======XXXX>>>>XX....................XX>>XXXX====,,====>>,,",
",,>>++======XXXX>>>>XX....................XX>>XXXX====,,====>>,,",
",,>>==,,,,,,==XXXX............................XX==,,,,,,==>>,,,,",
",,>>==,,,,,,==XXXX............................XX==,,,,,,==>>,,,,",
",,,,%%==,,%%,,==XX......................oo....XX==,,,,,,==%%,,,,",
",,,,%%==,,%%,,==XX......................oo....XX==,,,,,,==%%,,,,",
",,,,,,%%%%,,,,==XX..  oo................$$  ..XX==,,,,,,%%%%,,,,",
",,,,,,%%%%,,,,==XX..  oo................$$  ..XX==,,,,,,%%%%,,,,",
",,,,,,,,,,,,>>XXXX....  oooooooooooooooo  ....XXXX>>,,,,,,%%,,,,",
",,,,,,,,,,,,>>XXXX....  oooooooooooooooo  ....XXXX>>,,,,,,%%,,,,",
",,,,,,,,,,,,>>XX........  $$$$          ........XX>>,,,,,,,,%%,,",
",,,,,,,,,,,,>>XX........  $$$$          ........XX>>,,,,,,,,%%,,",
",,,,,,,,,,,,>>XX..oooo....  OO....@@......oooo..XX>>,,,,,,,,,,,,",
",,,,,,,,,,,,>>XX..oooo....  OO....@@......oooo..XX>>,,,,,,,,,,,,",
",,,,,,,,,,,,,,==      oo&&--::####;;--&&oo      ==,,,,,,,,,,,,,,",
",,,,,,,,,,,,,,==      oo&&--::####;;--&&oo      ==,,,,,,,,,,,,,,",
",,,,,,,,,,,,,,==XX....  $$&&**oooo**&&$$  ....XX==,,,,,,,,,,,,,,",
",,,,,,,,,,,,,,==XX....  $$&&**oooo**&&$$  ....XX==,,,,,,,,,,,,,,",
",,,,,,,,,,,,==XXXX==XX  $$$$$$    $$$$$$  XX==XXXX==,,,,,,,,,,,,",
",,,,,,,,,,,,==XXXX==XX  $$$$$$    $$$$$$  XX==XXXX==,,,,,,,,,,,,",
",,,,,,,,,,==XXXX==,,==XX      ....      XX==,,==XX==,,,,,,,,,,,,",
",,,,,,,,,,==XXXX==,,==XX      ....      XX==,,==XX==,,,,,,,,,,,,",
",,,,,,,,==XXXX==,,,,,,==++XXXX====XXXX++==,,,,==XXXX==,,,,,,,,,,",
",,,,,,,,==XXXX==,,,,,,==++XXXX====XXXX++==,,,,==XXXX==,,,,,,,,,,",
",,,,,,,,%%XX==,,,,,,,,,,,,++XX====XX++,,,,,,,,,,==XX%%,,,,,,,,,,",
",,,,,,,,%%XX==,,,,,,,,,,,,++XX====XX++,,,,,,,,,,==XX%%,,,,,,,,,,",
",,,,,,,,==++%%,,,,,,,,,,>>++%%%%%%%%++>>,,,,,,,,==XX%%,,,,,,,,,,",
",,,,,,,,==++%%,,,,,,,,,,>>++%%%%%%%%++>>,,,,,,,,==XX%%,,,,,,,,,,",
",,,,,,,,==++%%,,,,,,,,>>++%%,,,,,,,,%%++>>,,,,,,==XX%%,,,,,,,,,,",
",,,,,,,,==++%%,,,,,,,,>>++%%,,,,,,,,%%++>>,,,,,,==XX%%,,,,,,,,,,",
",,,,,,,,==++%%,,,,,,,,>>%%,,,,,,,,,,,,%%>>,,,,%%++==,,,,,,,,,,,,",
",,,,,,,,==++%%,,,,,,,,>>%%,,,,,,,,,,,,%%>>,,,,%%++==,,,,,,,,,,,,",
",,,,,,,,,,==++%%,,,,,,>>%%,,,,,,,,,,,,%%>>,,,,%%++==,,,,%%,,,,,,",
",,,,,,,,,,==++%%,,,,,,>>%%,,,,,,,,,,,,%%>>,,,,%%++==,,,,%%,,,,,,",
",,,,,,,,,,==++%%,,,,,,,,>>====,,,,====>>,,,,,,%%++==,,==%%,,,,,,",
",,,,,,,,,,==++%%,,,,,,,,>>====,,,,====>>,,,,,,%%++==,,==%%,,,,,,",
",,,,,,,,,,,,%%%%,,,,,,,,,,%%%%%%%%%%%%,,,,,,,,%%++++==%%,,,,,,,,",
",,,,,,,,,,,,%%%%,,,,,,,,,,%%%%%%%%%%%%,,,,,,,,%%++++==%%,,,,,,,,",
",,,,,,,,,,%%,,,,,,,,,,,,,,,,%%,,,,%%,,,,,,,,,,,,%%%%%%,,,,,,,,,,",
",,,,,,,,,,%%,,,,,,,,,,,,,,,,%%,,,,%%,,,,,,,,,,,,%%%%%%,,,,,,,,,,",
",,,,,,,,,,,,,,,,,,,,,,,,,,,,,,,,,,,,,,,,,,,,,,,,,,,,,,,,,,,,,,,,",
",,,,,,,,,,,,,,,,,,,,,,,,,,,,,,,,,,,,,,,,,,,,,,,,,,,,,,,,,,,,,,,,",
",,,,,,,,,,,,,,,,,,,,,,,,,,,,,,,,,,,,,,,,,,,,,,,,,,,,,,,,,,,,,,,,",
",,,,,,,,,,,,,,,,,,,,,,,,,,,,,,,,,,,,,,,,,,,,,,,,,,,,,,,,,,,,,,,,"
};
