/* XPM */
static char *result[] = {
/* columns rows colors chars-per-pixel */
"64 64 4 1 ",
"  c #26191B",
". c #513539",
"X c #9E686E",
"o c None",
/* pixels */
"oooooooooooooooooooooooooooooooooooooooooooooooooooooooooooooooo",
"oooooooooooooooooooooooooooooooooooooooooooooooooooooooooooooooo",
"oooooooooooooooooooooooooooooooooooooooooooooooooooooooooooooooo",
"oooooooooooooooooooooooooooooooooooooooooooooooooooooooooooooooo",
"oooooooooooooooooooooooooooooooooooooooooooooooooooooooooooooooo",
"oooooooooooooooooooooooooooooooooooooooooooooooooooooooooooooooo",
"oooooooooooooooooooooooooooooooooooooooooooooooooooooooooooooooo",
"oooooooooooooooooooooooooooooooooooooooooooooooooooooooooooooooo",
"oooooooooooooooooooooooooooooooooooooooooooooooooooooooooooooooo",
"oooooooooooooooooooooooooooooooooooooooooooooooooooooooooooooooo",
"oooooooooooooooooooooooooooooooooooooooooooooooooooooooooooooooo",
"oooooooooooooooooooooooooooooooooooooooooooooooooooooooooooooooo",
"oooooooooooooooooooooooooooooooooooooooooooooooooooooooooooooooo",
"oooooooooooooooooooooooooooooooooooooooooooooooooooooooooooooooo",
"oooooooooooooooooooooooooooooooooooooooooooooooooooooooooooooooo",
"oooooooooooooooooooooooooooooooooooooooooooooooooooooooooooooooo",
"oooooooooooooooooooooooooooooooooooooooooooooooooooooooooooooooo",
"oooooooooooooooooooooooooooooooooooooooooooooooooooooooooooooooo",
"oooooooooooooooooooooooooooo        oooooooooooooooooooooooooooo",
"oooooooooooooooooooooooooooo        oooooooooooooooooooooooooooo",
"oooooooooooooooooooooooo    ........    oooooooooooooooooooooooo",
"oooooooooooooooooooooooo    ........    oooooooooooooooooooooooo",
"oooooooooooooooooooooo  ....XXXXXXXX....  oooooooooooooooooooooo",
"oooooooooooooooooooooo  ....XXXXXXXX....  oooooooooooooooooooooo",
"oooooooooooooooooooo  ..XXXX........XXXX..  oooooooooooooooooooo",
"oooooooooooooooooooo  ..XXXX........XXXX..  oooooooooooooooooooo",
"oooooooooooooooooooo  ..XX..        ..XX..  oooooooooooooooooooo",
"oooooooooooooooooooo  ..XX..        ..XX..  oooooooooooooooooooo",
"oooooooooooooooooo  ..XX..  oooooooo  ..XX..  oooooooooooooooooo",
"oooooooooooooooooo  ..XX..  oooooooo  ..XX..  oooooooooooooooooo",
"oooooooooooooooooo  ..XX..  oooooooo  ..XX..  oooooooooooooooooo",
"oooooooooooooooooo  ..XX..  oooooooo  ..XX..  oooooooooooooooooo",
"oooooooooooooooooo  ..XX..  oooooooo  ..XX..  oooooooooooooooooo",
"oooooooooooooooooo  ..XX..  oooooooo  ..XX..  oooooooooooooooooo",
"oooooooooooooooooo  ..XX..  oooooooo  ..XX..  oooooooooooooooooo",
"oooooooooooooooooo  ..XX..  oooooooo  ..XX..  oooooooooooooooooo",
"oooooooooooooooooooo  ..XX..        ..XX..  oooooooooooooooooooo",
"oooooooooooooooooooo  ..XX..        ..XX..  oooooooooooooooooooo",
"oooooooooooooooooooo  ..XXXX........XXXX..  oooooooooooooooooooo",
"oooooooooooooooooooo  ..XXXX........XXXX..  oooooooooooooooooooo",
"oooooooooooooooooooooo  ....XXXXXXXX....  oooooooooooooooooooooo",
"oooooooooooooooooooooo  ....XXXXXXXX....  oooooooooooooooooooooo",
"oooooooooooooooooooooooo    ........    oooooooooooooooooooooooo",
"oooooooooooooooooooooooo    ........    oooooooooooooooooooooooo",
"oooooooooooooooooooooooooooo        oooooooooooooooooooooooooooo",
"oooooooooooooooooooooooooooo        oooooooooooooooooooooooooooo",
"oooooooooooooooooooooooooooooooooooooooooooooooooooooooooooooooo",
"oooooooooooooooooooooooooooooooooooooooooooooooooooooooooooooooo",
"oooooooooooooooooooooooooooooooooooooooooooooooooooooooooooooooo",
"oooooooooooooooooooooooooooooooooooooooooooooooooooooooooooooooo",
"oooooooooooooooooooooooooooooooooooooooooooooooooooooooooooooooo",
"oooooooooooooooooooooooooooooooooooooooooooooooooooooooooooooooo",
"oooooooooooooooooooooooooooooooooooooooooooooooooooooooooooooooo",
"oooooooooooooooooooooooooooooooooooooooooooooooooooooooooooooooo",
"oooooooooooooooooooooooooooooooooooooooooooooooooooooooooooooooo",
"oooooooooooooooooooooooooooooooooooooooooooooooooooooooooooooooo",
"oooooooooooooooooooooooooooooooooooooooooooooooooooooooooooooooo",
"oooooooooooooooooooooooooooooooooooooooooooooooooooooooooooooooo",
"oooooooooooooooooooooooooooooooooooooooooooooooooooooooooooooooo",
"oooooooooooooooooooooooooooooooooooooooooooooooooooooooooooooooo",
"oooooooooooooooooooooooooooooooooooooooooooooooooooooooooooooooo",
"oooooooooooooooooooooooooooooooooooooooooooooooooooooooooooooooo",
"oooooooooooooooooooooooooooooooooooooooooooooooooooooooooooooooo",
"oooooooooooooooooooooooooooooooooooooooooooooooooooooooooooooooo"
};
