/* XPM */
static char *result[] = {
/* columns rows colors chars-per-pixel */
"64 64 17 1 ",
"  c #350F0F",
". c #491515",
"X c #601B1B",
"o c #601C1C",
"O c #502F2F",
"+ c #7F2424",
"@ c #753B3B",
"# c #FF0000",
"$ c #DB575C",
"% c #FF4747",
"& c #FF6060",
"* c #FF6868",
"= c #E07D7F",
"- c #FF7C7C",
"; c #FF9C9C",
": c #FFBABC",
"> c #000000",
/* pixels */
">>>>>>>>>>>>>>>>>>>>>>>>>>>>>>>>>>>>>>>>>>>>>>>>>>>>>>>>>>>>>>>>",
">>>>>>>>>>>>>>>>>>>>>>>>>>>>>>>>>>>>>>>>>>>>>>>>>>>>>>>>>>>>>>>>",
">>>>>>>>>>>>::::::::::::>>>>>>>>>>>>>>>>>>>>>>>>>>>>>>>>>>>>>>>>",
">>>>>>>>>>>>::::::::::::>>>>>>>>>>>>>>>>>>>>>>>>>>>>>>>>>>>>>>>>",
">>>>>>>>>>::::==++++++++::>>>>>>>>>>>>>>::::::::::::::>>>>>>>>>>",
">>>>>>>>>>::::==++++++++::>>>>>>>>>>>>>>::::::::::::::>>>>>>>>>>",
">>>>>>>>::$$$$>>====++++++::>>>>>>>>>>::++++++======::::>>>>>>>>",
">>>>>>>>::$$$$>>====++++++::>>>>>>>>>>::++++++======::::>>>>>>>>",
">>>>>>::$$>>>>>>>>==XXXXXX::>>>>>>>>::++++====>>>>$$$$::>>>>>>>>",
">>>>>>::$$>>>>>>>>==XXXXXX::>>>>>>>>::++++====>>>>$$$$::>>>>>>>>",
">>>>>>>>>>>>>>>>>>>>====XXXX::>>>>>>::XXXX==>>>>>>>>$$>>>>>>>>>>",
">>>>>>>>>>>>>>>>>>>>====XXXX::>>>>>>::XXXX==>>>>>>>>$$>>>>>>>>>>",
">>>>>>>>>>>>>>>>>>>>>>==..XX==>>>>==XX..==>>>>>>>>>>>>>>>>>>>>>>",
">>>>>>>>>>>>>>>>>>>>>>==..XX==>>>>==XX..==>>>>>>>>>>>>>>>>>>>>>>",
">>>>>>::::::>>>>>>>>>>==....XX====XX....==>>>>>>>>>>::::::>>>>>>",
">>>>>>::::::>>>>>>>>>>==....XX====XX....==>>>>>>>>>>::::::>>>>>>",
">>>>::++++++::::>>>>==XXXX............XXXX==>>>>::::++++++::>>>>",
">>>>::++++++::::>>>>==XXXX............XXXX==>>>>::::++++++::>>>>",
">>::++++==XXXXXX::>>==XX................XX==>>::XXXXXX====++::>>",
">>::++++==XXXXXX::>>==XX................XX==>>::XXXXXX====++::>>",
">>::++==>>==XXXX::::XX....................XX::XXXXXX==>>>>==::>>",
">>::++==>>==XXXX::::XX....................XX::XXXXXX==>>>>==::>>",
">>::==>>>>>>==XXXX............................XXXX==>>>>>>====>>",
">>::==>>>>>>==XXXX............................XXXX==>>>>>>====>>",
">>::==>>>>>>>>==XX....oo......................XX==>>>>>>>>==$$>>",
">>::==>>>>>>>>==XX....oo......................XX==>>>>>>>>==$$>>",
">>>>$$==>>>>>>==XX..  ##................oo  ..XX==>>>>>>>>$$$$>>",
">>>>$$==>>>>>>==XX..  ##................oo  ..XX==>>>>>>>>$$$$>>",
">>>>>>$$$$$$::XXXX....  oooooooooooooooo  ....XXXX::>>>>>>$$>>>>",
">>>>>>$$$$$$::XXXX....  oooooooooooooooo  ....XXXX::>>>>>>$$>>>>",
">>>>>>>>>>>>::XX........          ####  ........XX::>>>>>>$$>>>>",
">>>>>>>>>>>>::XX........          ####  ........XX::>>>>>>$$>>>>",
">>>>>>>>>>>>::XX..oooo............OO  ....oooo  XX::>>>>>>>>>>>>",
">>>>>>>>>>>>::XX..oooo............OO  ....oooo  XX::>>>>>>>>>>>>",
">>>>>>>>>>>>>>==  ####oo%%****oo@@;;--%%oo####  ==>>>>>>>>>>>>>>",
">>>>>>>>>>>>>>==  ####oo%%****oo@@;;--%%oo####  ==>>>>>>>>>>>>>>",
">>>>>>>>>>>>>>==XX      ##%%%%oooo&&%%##      XX==>>>>>>>>>>>>>>",
">>>>>>>>>>>>>>==XX      ##%%%%oooo&&%%##      XX==>>>>>>>>>>>>>>",
">>>>>>>>>>>>==XXXX==XX  ######    ######  XX==XXXX==>>>>>>>>>>>>",
">>>>>>>>>>>>==XXXX==XX  ######    ######  XX==XXXX==>>>>>>>>>>>>",
">>>>>>>>>>==XXXX==>>==XX      ....      XX==>>==XX==>>>>>>>>>>>>",
">>>>>>>>>>==XXXX==>>==XX      ....      XX==>>==XX==>>>>>>>>>>>>",
">>>>>>>>==XXXX==>>>>>>==++XXXX====XXXX++==>>>>==XXXX==>>>>>>>>>>",
">>>>>>>>==XXXX==>>>>>>==++XXXX====XXXX++==>>>>==XXXX==>>>>>>>>>>",
">>>>>>>>$$XX==>>>>>>>>>>>>++XX====XX++>>>>>>>>>>==XX$$>>>>>>>>>>",
">>>>>>>>$$XX==>>>>>>>>>>>>++XX====XX++>>>>>>>>>>==XX$$>>>>>>>>>>",
">>>>>>>>>>==++$$>>>>>>>>::++$$$$$$$$++::>>>>>>>>==XX$$>>>>>>>>>>",
">>>>>>>>>>==++$$>>>>>>>>::++$$$$$$$$++::>>>>>>>>==XX$$>>>>>>>>>>",
">>>>>>>>>>==++$$>>>>>>::++$$>>>>>>>>$$++::>>>>$$++==>>>>>>>>>>>>",
">>>>>>>>>>==++$$>>>>>>::++$$>>>>>>>>$$++::>>>>$$++==>>>>>>>>>>>>",
">>>>>>>>>>==++$$>>>>>>::$$>>>>>>>>>>>>$$::>>>>$$++==>>>>>>>>>>>>",
">>>>>>>>>>==++$$>>>>>>::$$>>>>>>>>>>>>$$::>>>>$$++==>>>>>>>>>>>>",
">>>>>>>>==++$$>>>>>>>>::$$>>>>>>>>>>>>$$::>>>>$$++==>>>>>>>>>>>>",
">>>>>>>>==++$$>>>>>>>>::$$>>>>>>>>>>>>$$::>>>>$$++==>>>>>>>>>>>>",
">>>>>>>>==++$$>>>>>>>>$$====>>>>>>>>====$$>>>>$$++==>>>>>>>>>>>>",
">>>>>>>>==++$$>>>>>>>>$$====>>>>>>>>====$$>>>>$$++==>>>>>>>>>>>>",
">>>>>>>>$$$$>>>>>>>>>>>>$$$$>>>>>>>>$$$$>>>>>>>>$$++====$$$$>>>>",
">>>>>>>>$$$$>>>>>>>>>>>>$$$$>>>>>>>>$$$$>>>>>>>>$$++====$$$$>>>>",
">>>>>>>>>>$$>>>>>>>>>>>>>>$$$$>>>>$$$$>>>>>>>>>>>>$$$$$$>>>>>>>>",
">>>>>>>>>>$$>>>>>>>>>>>>>>$$$$>>>>$$$$>>>>>>>>>>>>$$$$$$>>>>>>>>",
">>>>>>>>>>>>>>>>>>>>>>>>>>>>>>>>>>>>>>>>>>>>>>>>>>>>>>>>>>>>>>>>",
">>>>>>>>>>>>>>>>>>>>>>>>>>>>>>>>>>>>>>>>>>>>>>>>>>>>>>>>>>>>>>>>",
">>>>>>>>>>>>>>>>>>>>>>>>>>>>>>>>>>>>>>>>>>>>>>>>>>>>>>>>>>>>>>>>",
">>>>>>>>>>>>>>>>>>>>>>>>>>>>>>>>>>>>>>>>>>>>>>>>>>>>>>>>>>>>>>>>"
};
