/* XPM */
static char *result[] = {
/* columns rows colors chars-per-pixel */
"64 64 12 1 ",
"  c #350F0F",
". c #491515",
"X c #601B1B",
"o c #DD0007",
"O c #FF0400",
"+ c #FF0008",
"@ c #DD252B",
"# c #DB575C",
"$ c #FF4747",
"% c #E07D7F",
"& c #FFBABC",
"* c None",
/* pixels */
"****************************************************************",
"****************************************************************",
"****************************************************************",
"****************************************************************",
"****************************************************************",
"****************************************************************",
"****************************************************************",
"****************************************************************",
"****************************************************************",
"****************************************************************",
"****************************************************************",
"****************************************************************",
"****************************************************************",
"****************************************************************",
"************************&&&&&&********&&&&&&********************",
"************************&&&&&&********&&&&&&********************",
"**************************@@XX&&****&&XXXX%%********************",
"**************************@@XX&&****&&XXXX%%********************",
"**************************##XX&&**&&    ##**********************",
"**************************##XX&&**&&    ##**********************",
"********************&&&&****##++**++@@##************************",
"********************&&&&****##++**++@@##************************",
"******************&&@@XX%%**##++**@@##**************************",
"******************&&@@XX%%**##++**@@##**************************",
"****************####@@@@@@++@@++&&%%****&&&&&&******************",
"****************####@@@@@@++@@++&&%%****&&&&&&******************",
"**************************%%XX@@@@XX&&++++++##%%****************",
"**************************%%XX@@@@XX&&++++++##%%****************",
"********************&&&&%%XX$$OO@@$$XX@@@@##********************",
"********************&&&&%%XX$$OO@@$$XX@@@@##********************",
"******************%%XX@@++++OO++@@  %%**************************",
"******************%%XX@@++++OO++@@  %%**************************",
"****************%%  ##@@@@oo  ++oo  @@++++&&********************",
"****************%%  ##@@@@oo  ++oo  @@++++&&********************",
"****************####******%%  oo..##**@@@@  &&******************",
"****************####******%%  oo..##**@@@@  &&******************",
"************************&&XX@@oo%%++&&**@@@@XX%%****************",
"************************&&XX@@oo%%++&&**@@@@XX%%****************",
"************************&&++++**%%++++&&****####****************",
"************************&&++++**%%++++&&****####****************",
"************************##  ++****##  ##************************",
"************************##  ++****##  ##************************",
"************************####******##  ##************************",
"************************####******##  ##************************",
"**************************##********##**************************",
"**************************##********##**************************",
"****************************************************************",
"****************************************************************",
"****************************************************************",
"****************************************************************",
"****************************************************************",
"****************************************************************",
"****************************************************************",
"****************************************************************",
"****************************************************************",
"****************************************************************",
"****************************************************************",
"****************************************************************",
"****************************************************************",
"****************************************************************",
"****************************************************************",
"****************************************************************",
"****************************************************************",
"****************************************************************"
};
