/* XPM */
static char *_12445fbd73a409fde43939dffd127fevWgeVNMagNk8iS7K[] = {
/* columns rows colors chars-per-pixel */
"32 32 12 1 ",
"  c None",
". c #350F0F",
"X c #491515",
"o c #601B1B",
"O c #601C1C",
"+ c #7F2424",
"@ c red",
"# c #DB575C",
"$ c #FF4747",
"% c #FF6868",
"& c #E07D7F",
"* c #FFBABC",
/* pixels */
"                                ",
"    *******          *******    ",
"   **&&&+++*        *+++&&&**   ",
"  *##   &&++*      *++&&   ##*  ",
"  #       &oo*    *oo&       #  ",
"          &oo*    *oo&          ",
"   ***     &Xo&  &oX&     ***   ",
"  *+++**   &XXo&&oXX&   **+++*  ",
" *++&ooo* &ooXXXXXXoo& *ooo&++* ",
" *+& &oo* &oXXXXXXXXo& *oo& &+* ",
" *&   &oo*oXXXXXXXXXXo*oo&   &* ",
" *&   &ooXXXXXXXXXXXXXXoo&   &* ",
" &&    &oXXOXXXXXXXXOXXo&    && ",
" #&    &oX.@XOOXXOOX@.Xo&    &# ",
"  ##  *ooXX.O@$OO$@O.XXoo*  ##  ",
"   #  *oXOOX.@@..@@.XOOXo*  #   ",
"    # *o.@$OX..XX..OO$@.o* #    ",
"       &.@@O$%%OO%%$O@@.&       ",
"       &o...@$$OO$$@...o&       ",
"      &oo&o.@@@..@@@.o&oo&      ",
"     &oo& &o...XX...o& &oo&     ",
"     &o&  &+ooo&&ooo+&  &o&     ",
"     #o&    +o&  &o+    &o#     ",
"      &+#  *+##  ##+*  #+&      ",
"      &+# *+#      #+* #+&      ",
"      &+# *#        #* #+&      ",
"      &+# *#        #* #+&      ",
"    &&+#  #&&      &&#  #+&&    ",
"   ####    ##      ##    ####   ",
"  #         ##    ##         #  ",
"                                ",
"                                "
};
