/* XPM */
static char *result[] = {
/* columns rows colors chars-per-pixel */
"32 32 4 1 ",
"  c #26191B",
". c #513539",
"X c #9E686E",
"o c None",
/* pixels */
"oooooooooooooooooooooooooooooooo",
"oooooooooooooooooooooooooooooooo",
"oooooooooooooooooooooooooooooooo",
"oooooooooooooooooooooooooooooooo",
"oooooooooooooooooooooooooooooooo",
"oooooooooooooooooooooooooooooooo",
"oooooooooooooooooooooooooooooooo",
"oooooooooooooooooooooooooooooooo",
"oooooooooooooooooooooooooooooooo",
"oooooooooooooo    oooooooooooooo",
"oooooooooooo  ....  oooooooooooo",
"ooooooooooo ..XXXX.. ooooooooooo",
"oooooooooo .XX....XX. oooooooooo",
"oooooooooo .X.    .X. oooooooooo",
"ooooooooo .X. oooo .X. ooooooooo",
"ooooooooo .X. oooo .X. ooooooooo",
"ooooooooo .X. oooo .X. ooooooooo",
"ooooooooo .X. oooo .X. ooooooooo",
"oooooooooo .X.    .X. oooooooooo",
"oooooooooo .XX....XX. oooooooooo",
"ooooooooooo ..XXXX.. ooooooooooo",
"oooooooooooo  ....  oooooooooooo",
"oooooooooooooo    oooooooooooooo",
"oooooooooooooooooooooooooooooooo",
"oooooooooooooooooooooooooooooooo",
"oooooooooooooooooooooooooooooooo",
"oooooooooooooooooooooooooooooooo",
"oooooooooooooooooooooooooooooooo",
"oooooooooooooooooooooooooooooooo",
"oooooooooooooooooooooooooooooooo",
"oooooooooooooooooooooooooooooooo",
"oooooooooooooooooooooooooooooooo"
};
