/* XPM */
static char *result[] = {
/* columns rows colors chars-per-pixel */
"32 32 12 1 ",
"  c #350F0F",
". c #491515",
"X c #601B1B",
"o c #DD0007",
"O c #FF0400",
"+ c #FF0008",
"@ c #DD252B",
"# c #DB575C",
"$ c #FF4747",
"% c #E07D7F",
"& c #FFBABC",
"* c None",
/* pixels */
"********************************",
"********************************",
"********************************",
"********************************",
"********************************",
"********************************",
"********************************",
"************&&&****&&&**********",
"*************@X&**&XX%**********",
"*************#X&*&  #***********",
"**********&&**#+*+@#************",
"*********&@X%*#+*@#*************",
"********##@@@+@+&%**&&&*********",
"*************%X@@X&+++#%********",
"**********&&%X$O@$X@@#**********",
"*********%X@++O+@ %*************",
"********% #@@o +o @++&**********",
"********##***% o.#*@@ &*********",
"************&X@o%+&*@@X%********",
"************&++*%++&**##********",
"************# +**# #************",
"************##***# #************",
"*************#****#*************",
"********************************",
"********************************",
"********************************",
"********************************",
"********************************",
"********************************",
"********************************",
"********************************",
"********************************"
};
