/* XPM */
static char *result[] = {
/* columns rows colors chars-per-pixel */
"32 32 3 1 ",
"  c #26191B",
". c #513539",
"X c None",
/* pixels */
"XXXXXXXXXXXXXXXXXXXXXXXXXXXXXXXX",
"XXXXXXXXXXXXXXXXXXXXXXXXXXXXXXXX",
"XXXXXXXXXXXXXXXXXXXXXXXXXXXXXXXX",
"XXXXXXXXXXXXXXXXXXXXXXXXXXXXXXXX",
"XXXXXXXXXXXXXXXXXXXXXXXXXXXXXXXX",
"XXXXXXXXXXXXXXXXXXXXXXXXXXXXXXXX",
"XXXXXXXXXXXXXXXXXXXXXXXXXXXXXXXX",
"XXXXXXXXXXXXXXXXXXXXXXXXXXXXXXXX",
"XXXXXXXXXXXXXX    XXXXXXXXXXXXXX",
"XXXXXXXXXXXX  ....  XXXXXXXXXXXX",
"XXXXXXXXXXX ..    .. XXXXXXXXXXX",
"XXXXXXXXXX .  XXXX  . XXXXXXXXXX",
"XXXXXXXXX . XXXXXXXX . XXXXXXXXX",
"XXXXXXXXX . XXXXXXXX . XXXXXXXXX",
"XXXXXXXX . XXXXXXXXXX . XXXXXXXX",
"XXXXXXXX . XXXXXXXXXX . XXXXXXXX",
"XXXXXXXX . XXXXXXXXXX . XXXXXXXX",
"XXXXXXXX . XXXXXXXXXX . XXXXXXXX",
"XXXXXXXXX . XXXXXXXX . XXXXXXXXX",
"XXXXXXXXX . XXXXXXXX . XXXXXXXXX",
"XXXXXXXXXX .  XXXX  . XXXXXXXXXX",
"XXXXXXXXXXX ..    .. XXXXXXXXXXX",
"XXXXXXXXXXXX  ....  XXXXXXXXXXXX",
"XXXXXXXXXXXXXX    XXXXXXXXXXXXXX",
"XXXXXXXXXXXXXXXXXXXXXXXXXXXXXXXX",
"XXXXXXXXXXXXXXXXXXXXXXXXXXXXXXXX",
"XXXXXXXXXXXXXXXXXXXXXXXXXXXXXXXX",
"XXXXXXXXXXXXXXXXXXXXXXXXXXXXXXXX",
"XXXXXXXXXXXXXXXXXXXXXXXXXXXXXXXX",
"XXXXXXXXXXXXXXXXXXXXXXXXXXXXXXXX",
"XXXXXXXXXXXXXXXXXXXXXXXXXXXXXXXX",
"XXXXXXXXXXXXXXXXXXXXXXXXXXXXXXXX"
};
