/* XPM */
static char *result[] = {
/* columns rows colors chars-per-pixel */
"32 32 15 1 ",
"  c black",
". c #210909",
"X c #350F0F",
"o c #491515",
"O c #561919",
"+ c #601B1B",
"@ c #601C1C",
"# c #7F2424",
"$ c #FF0010",
"% c #DB575C",
"& c #FF4747",
"* c #FF6868",
"= c #E07D7F",
"- c #FFBABC",
"; c None",
/* pixels */
";;;;;;;;;;;;;;;;;;;;;;;;;;;;;;;;",
";;;;;;;;;;;;;;;;;;;;;;;;;;;;;;;;",
";;;;-;;;;;;;;;;;;;;;;;;;;;;;;;;;",
";;;-=--;;;;;;-;;;;;;;;;;;;;;;;;;",
";;=;;%#-;;;--#-;;;;;;;;;;;;;;;;;",
";;;;;%#-;;-;;%#--;;;;;----;;;;;;",
";;;;;;=-;;;;;;%#-;;;;-####-;;;;;",
";;;;;;==;;;;;;%+=;;;;=++%#-;;;;;",
";;;;;;==;;;;;=++=;;;=++%;%=;;;;;",
";;;;;==#=;;;-#++#-;-#+#%;%#-;;;;",
";;;;;%++#==.=#+++=.=++=;;;=+-;;;",
";;;;;%+++#=X=++++=X=++=;;;;==-;;",
";;;;;%++++=O==+++%O%++=..;;;;=;;",
";;;;;%%=++= &%%%%oo%%%+==..;;;=;",
";;;..XO%%== $$oo@@@o%%%%=OX..;;;",
";..XO$----  @@@o**&@OOO%%$OOX..;",
";..XO$-###- &**X&&&@--OO%$OO...;",
";;;..X=#++= $&&X$$$-##--%OX..;;;",
";;;;.-#+++%OX---XX-++++#--..;;;;",
";;;;-#+++%%%-##=-O%+++++#-;;;;;;",
";;;-#=%%%..%%+#+-%%%%%=++#-;;;;;",
";;;=#%;;;;...%++-X...;;=+#-;;;;;",
";;=+%;;;;;;;.=+=...;;;;;-#-;;;;;",
";;=+%;;;;;;;-++=;;;;;;;;=#=;;;;;",
";;;==;;;;;;-+++%;;;;;;;;==;;;;;;",
";;;==;;;;;;=+%%;;;;;;;;%#=;;;;;;",
";;;;==;;;;=#%;;;;;;;;;;%=;;;;;;;",
";;;;;;=;;;=%;;;;;;;;;;;%=;;;;;;;",
";;;;;;;;;;=%;;;;;;;;;;;%=;;;;;;;",
";;;;;;;;;;=%;;;;;;;;;;;;%%;;;;;;",
";;;;;;;;;;;=;;;;;;;;;;;;;;%;;;;;",
";;;;;;;;;;;;;;;;;;;;;;;;;;;;;;;;"
};
